<svg xmlns="http://www.w3.org/2000/svg" viewBox="0 0 64 64"><defs><style>.cls-1{fill:none;}.cls-2{fill:#4d4e50;}.cls-3{fill:#00d6a0;}.cls-4{fill:#fff;}</style></defs><g id="Object"><path class="cls-1" d="M22.76,36.77a7.06,7.06,0,1,0-7.66-6.42A7.06,7.06,0,0,0,22.76,36.77Z"/><path class="cls-1" d="M50.49,47.42a4.89,4.89,0,1,0-5.06-8.37,4.89,4.89,0,0,0,5.06,8.37Z"/><path d="M5.91,24.24a17,17,0,0,0-.83,4l2.78,1.35c0,.45,0,.9,0,1.36l.06.46L5.34,33.09A17.4,17.4,0,0,0,6.62,37l3.09-.22a15.46,15.46,0,0,0,1,1.53L9.27,41a16.64,16.64,0,0,0,3.07,2.74l2.56-1.73a13.86,13.86,0,0,0,1.63.83L16.65,46a16.51,16.51,0,0,0,4,.84L22,44c.44,0,.9,0,1.35-.06l.47,0,1.65,2.62a17.57,17.57,0,0,0,3.91-1.28l-.22-3.09a15.46,15.46,0,0,0,1.53-1l2.73,1.43a17.34,17.34,0,0,0,2.74-3.06L34.46,37a13.86,13.86,0,0,0,.83-1.63l3.08-.12a17,17,0,0,0,.84-4l-2.78-1.35a12.27,12.27,0,0,0,0-1.35c0-.16,0-.32-.05-.47l2.61-1.65a16.45,16.45,0,0,0-1.28-3.91l-3.08.22a15.46,15.46,0,0,0-1-1.53L35,18.43A17.35,17.35,0,0,0,32,15.68l-2.56,1.74a14.69,14.69,0,0,0-1.63-.83l-.13-3.08a16.33,16.33,0,0,0-4-.84l-1.35,2.78a12.46,12.46,0,0,0-1.36.05l-.47.05-1.64-2.61a16.45,16.45,0,0,0-3.91,1.28l.22,3.08a14.37,14.37,0,0,0-1.53,1l-2.74-1.43a17.7,17.7,0,0,0-2.74,3.06l1.74,2.56A14.69,14.69,0,0,0,9,24.12Zm16.23-4.58A10.08,10.08,0,1,1,12.07,29.74,10.09,10.09,0,0,1,22.14,19.66Z"/><path class="cls-2" d="M22.14,39.09a9.36,9.36,0,1,0-9.35-9.35A9.36,9.36,0,0,0,22.14,39.09ZM21.53,22.7a7.06,7.06,0,1,1-6.43,7.65A7.06,7.06,0,0,1,21.53,22.7Z"/><path class="cls-2" d="M47.82,51.36A8,8,0,1,0,40,43.18,8,8,0,0,0,47.82,51.36ZM45.43,39.05a4.89,4.89,0,1,1-1.69,6.56A4.94,4.94,0,0,1,45.43,39.05Z"/><path d="M39.63,36.4l-2.16-.59a13.15,13.15,0,0,0-1.38,2.45l1.63,1.54a11.3,11.3,0,0,0-.44,1.71l-2.17.57a13.21,13.21,0,0,0,0,2.81l2.18.52a10.53,10.53,0,0,0,.48,1.7l-1.6,1.58a13.52,13.52,0,0,0,.65,1.25,11.89,11.89,0,0,0,.78,1.17l2.16-.64A10.36,10.36,0,0,0,41,51.7l-.59,2.17a12.56,12.56,0,0,0,2.45,1.37l1.54-1.63a10.22,10.22,0,0,0,1.71.44l.57,2.18a13.21,13.21,0,0,0,2.81,0L50.05,54a10.25,10.25,0,0,0,1.7-.48l1.58,1.6a10.6,10.6,0,0,0,1.25-.65,11.89,11.89,0,0,0,1.17-.78l-.64-2.15a11.34,11.34,0,0,0,1.24-1.26l2.16.59a13.4,13.4,0,0,0,1.38-2.44l-1.63-1.55a11.3,11.3,0,0,0,.44-1.71l2.17-.57a13.21,13.21,0,0,0,0-2.81l-2.18-.52a13.06,13.06,0,0,0-.48-1.7L59.78,38c-.2-.42-.41-.84-.65-1.25s-.51-.79-.79-1.17l-2.15.65A9.83,9.83,0,0,0,54.93,35l.6-2.17a13.15,13.15,0,0,0-2.45-1.38l-1.55,1.64a11.3,11.3,0,0,0-1.71-.44l-.57-2.18a12.49,12.49,0,0,0-2.8,0l-.53,2.18a10.53,10.53,0,0,0-1.7.48l-1.57-1.6a10.6,10.6,0,0,0-1.25.65,11.89,11.89,0,0,0-1.17.78l.64,2.15A10.53,10.53,0,0,0,39.63,36.4ZM48.16,35a8.37,8.37,0,1,1-8.53,8.19A8.38,8.38,0,0,1,48.16,35Z"/><path class="cls-3" d="M22.14,39.81A10.08,10.08,0,1,0,12.07,29.74,10.09,10.09,0,0,0,22.14,39.81Zm0-19.43a9.36,9.36,0,1,1-9.35,9.36A9.36,9.36,0,0,1,22.14,20.38Z"/><path class="cls-4" d="M47.81,51.71a8.37,8.37,0,1,0-8.18-8.54A8.39,8.39,0,0,0,47.81,51.71Zm.35-16.38A8,8,0,1,1,40,43.18,8,8,0,0,1,48.16,35.33Z"/></g></svg>