<svg xmlns="http://www.w3.org/2000/svg" viewBox="0 0 64 64"><defs><style>.cls-1{fill:none;}.cls-2{fill:#00d6a0;}</style></defs><g id="Object"><path class="cls-1" d="M41.19,30.06a7.05,7.05,0,0,1,.52,2.67,7,7,0,0,1-2.07,5l-1,1,7.44,7.44a1.87,1.87,0,0,0,.59.4,1.87,1.87,0,0,0,1.37,0,1.91,1.91,0,0,0,.6-.4l6.69-6.69a1.68,1.68,0,0,0,.39-.59,1.75,1.75,0,0,0,0-1.37,1.72,1.72,0,0,0-.39-.6L39.91,21.57a1.54,1.54,0,0,0-.6-.4,1.72,1.72,0,0,0-1.36,0,1.54,1.54,0,0,0-.6.4L35.42,23.5l4.22,4.23A6.84,6.84,0,0,1,41.19,30.06Z"/><path class="cls-1" d="M19.93,15.66a1.72,1.72,0,0,0-.68-.13,1.75,1.75,0,0,0-.68.13,1.66,1.66,0,0,0-.6.4l-6.22,6.22-.47.47a1.8,1.8,0,0,0-.4.6,1.72,1.72,0,0,0-.13.68,1.78,1.78,0,0,0,.53,1.28L26.67,40.7a1.8,1.8,0,0,0,.6.4,1.91,1.91,0,0,0,.68.13,2,2,0,0,0,.68-.13,1.8,1.8,0,0,0,.6-.4l1.93-1.94-4.22-4.22a7.07,7.07,0,0,1,0-10h0l1-1-7.44-7.44A1.66,1.66,0,0,0,19.93,15.66Z"/><path class="cls-1" d="M36.32,33.41a1.87,1.87,0,0,0,0-1.37,1.87,1.87,0,0,0-.4-.59L31.7,27.22l-.58.57-.46.47a1.87,1.87,0,0,0-.4.59,1.87,1.87,0,0,0,0,1.37,2,2,0,0,0,.4.6L34.89,35l1-1A1.91,1.91,0,0,0,36.32,33.41Z"/><path d="M39.64,37.73a7,7,0,0,0,2.07-5,7.05,7.05,0,0,0-.52-2.67,6.84,6.84,0,0,0-1.55-2.33L35.42,23.5,31.7,27.22l4.22,4.23a1.87,1.87,0,0,1,.4.59,1.87,1.87,0,0,1,0,1.37,1.91,1.91,0,0,1-.4.6l-1,1-3.73,3.72L29.23,40.7a1.8,1.8,0,0,1-.6.4,2,2,0,0,1-.68.13,1.91,1.91,0,0,1-.68-.13,1.8,1.8,0,0,1-.6-.4L11.28,25.31A1.78,1.78,0,0,1,10.75,24a1.72,1.72,0,0,1,.13-.68,1.8,1.8,0,0,1,.4-.6l.47-.47L18,16.06a1.66,1.66,0,0,1,.6-.4,1.75,1.75,0,0,1,.68-.13,1.72,1.72,0,0,1,.68.13,1.66,1.66,0,0,1,.6.4L28,23.5l3.72-3.72-7.44-7.44a7,7,0,0,0-2.34-1.56,7.16,7.16,0,0,0-2.66-.52,7.24,7.24,0,0,0-2.66.52,7.16,7.16,0,0,0-2.34,1.56L7.56,19h0A6.88,6.88,0,0,0,6,21.37,7.08,7.08,0,0,0,7.56,29L23,44.42a7.08,7.08,0,0,0,10,0l1.94-1.94,3.72-3.72Z"/><path class="cls-2" d="M59,33.23,43.63,17.84a7.19,7.19,0,0,0-2.34-1.55,7.08,7.08,0,0,0-7.66,1.55l-1.94,1.94L28,23.5l-1,1h0a7,7,0,0,0-2.07,5,7,7,0,0,0,2.07,5l4.22,4.22L34.89,35l-4.23-4.22a2,2,0,0,1-.4-.6,1.87,1.87,0,0,1,0-1.37,1.87,1.87,0,0,1,.4-.59l.46-.47.58-.57,3.72-3.72,1.93-1.93a1.54,1.54,0,0,1,.6-.4,1.72,1.72,0,0,1,1.36,0,1.54,1.54,0,0,1,.6.4L55.3,37a1.72,1.72,0,0,1,.39.6,1.75,1.75,0,0,1,0,1.37,1.68,1.68,0,0,1-.39.59L48.61,46.2a1.91,1.91,0,0,1-.6.4,1.87,1.87,0,0,1-1.37,0,1.87,1.87,0,0,1-.59-.4l-7.44-7.44-3.72,3.72,7.44,7.45a7.08,7.08,0,0,0,2.34,1.55,7,7,0,0,0,2.66.52A7,7,0,0,0,50,51.48a7.29,7.29,0,0,0,2.34-1.55L59,43.23a7.07,7.07,0,0,0,1.55-7.66A7.13,7.13,0,0,0,59,33.23Z"/></g></svg>