<svg xmlns="http://www.w3.org/2000/svg" viewBox="0 0 64 64"><defs><style>.cls-1{fill:#00d6a0;}</style></defs><g id="Object"><path d="M52.11,56V53.7H12.46V13.15H10.13V54.87a1.17,1.17,0,0,0,.34.83,1.22,1.22,0,0,0,.83.34Z"/><path class="cls-1" d="M51,17.16H44.32a1.76,1.76,0,0,0,0,3.52h2.32L34.25,35.3l-.06-4.4A1.75,1.75,0,0,0,33,29.28a1.78,1.78,0,0,0-1.94.51L14.87,49a1.76,1.76,0,1,0,2.68,2.27L30.74,35.64l.07,4.4A1.76,1.76,0,0,0,32,41.67a1.78,1.78,0,0,0,1.93-.52L49.28,23v3.16a1.76,1.76,0,0,0,3.51,0V18.92A1.78,1.78,0,0,0,51,17.16Z"/></g></svg>