<svg width="14" height="14" viewBox="0 0 14 14" fill="currentColor" xmlns="http://www.w3.org/2000/svg">
    <path fill-rule="evenodd" clip-rule="evenodd" d="M5.69219 3.79163C5.6922 3.2474 5.84899 2.88699 6.05577 2.6718C6.25142 2.46819 6.54954 2.33329 7.00008 2.33329C7.45063 2.33329 7.74875 2.46819 7.9444 2.6718C8.15118 2.88699 8.30797 3.2474 8.30797 3.79163V4.08329H5.69219V3.79163ZM4.38431 5.24996V6.41663C4.38431 6.73879 4.67709 6.99996 5.03825 6.99996C5.39941 6.99996 5.69219 6.73879 5.69219 6.41663V5.24996H8.30797V6.41663C8.30797 6.73879 8.60075 6.99996 8.96191 6.99996C9.32307 6.99996 9.61586 6.73879 9.61586 6.41663V5.24996H10.9721L11.5254 11.6666H2.47471L3.02805 5.24996H4.38431ZM4.38431 4.08329V3.79163C4.38431 3.05952 4.59522 2.39909 5.06275 1.91254C5.54141 1.4144 6.2242 1.16663 7.00008 1.16663C7.77596 1.16663 8.45876 1.4144 8.93742 1.91254C9.40495 2.39909 9.61586 3.05952 9.61586 3.79163V4.08329H10.9721C11.6555 4.08329 12.2237 4.55265 12.2761 5.16048L12.8295 11.5771C12.8879 12.2547 12.2873 12.8333 11.5254 12.8333H2.47471C1.71285 12.8333 1.11225 12.2547 1.17068 11.5771L1.72401 5.16048C1.77643 4.55265 2.34463 4.08329 3.02805 4.08329H4.38431Z"/>
</svg>
