<svg xmlns="http://www.w3.org/2000/svg" viewBox="0 0 64 64"><defs><style>.cls-1{fill:#4d4e50;}.cls-2{fill:#fff;}.cls-3{fill:#00d6a0;}</style></defs><g id="Object"><path class="cls-1" d="M59.72,30.58a7.5,7.5,0,1,0-7.5,7.5A7.5,7.5,0,0,0,59.72,30.58Z"/><path class="cls-2" d="M50.47,48l.87-5.7h0l-.85-1.57h3.41l-.85,1.57h0L54,48h1l1.61-8.48a3.59,3.59,0,0,0-.47,0H48.29a3.87,3.87,0,0,0-.48,0L49.43,48Z"/><path class="cls-1" d="M19.27,30.58a7.5,7.5,0,1,0-7.49,7.5A7.49,7.49,0,0,0,19.27,30.58Z"/><path class="cls-1" d="M.39,45.83v3.42h15a10.74,10.74,0,0,1,1.13-4.56v4.56h31V44.64a10.66,10.66,0,0,1,1.16,4.61H63.61V45.83a7,7,0,0,0-7-7H47.88a6.86,6.86,0,0,0-2.08.33A9.6,9.6,0,0,0,37.91,35H26.09a9.6,9.6,0,0,0-7.89,4.13,6.87,6.87,0,0,0-2.09-.33H7.43A7,7,0,0,0,.39,45.83Zm47.9-6.3h7.87a3.59,3.59,0,0,1,.47,0L55,48H54l-.87-5.7h0l.85-1.57H50.52l.85,1.57h0L50.47,48h-1l-1.62-8.48A3.87,3.87,0,0,1,48.29,39.53ZM26.64,36H37.36c.22,0,.43,0,.65,0L35.8,47.6H28.19L26,36C26.21,36,26.42,36,26.64,36ZM7.85,39.53h7.86a3.87,3.87,0,0,1,.48,0L14.57,48h-1l-.87-5.7h0l.85-1.57H10.07l.85,1.57h0L10,48H9L7.37,39.56A3.64,3.64,0,0,1,7.85,39.53Z"/><path class="cls-2" d="M10,48l.87-5.7h0l-.85-1.57h3.41l-.85,1.57h0l.87,5.7h1l1.62-8.48a3.87,3.87,0,0,0-.48,0H7.85a3.64,3.64,0,0,0-.48,0L9,48Z"/><path class="cls-1" d="M42.22,23.81A10.22,10.22,0,1,0,32,34,10.23,10.23,0,0,0,42.22,23.81Z"/><path class="cls-2" d="M29.61,47.6l1.19-7.77h0l-1.16-2.14h4.65l-1.17,2.14h0l1.19,7.77H35.8L38,36c-.22,0-.43,0-.65,0H26.64c-.22,0-.43,0-.65,0l2.2,11.56Z"/><polygon class="cls-3" points="33.2 39.83 33.16 39.83 34.33 37.69 29.68 37.69 30.84 39.83 30.8 39.83 29.61 47.6 34.39 47.6 33.2 39.83 33.2 39.83"/></g></svg>