<svg width="16" height="15" viewBox="0 0 16 15" fill="none" xmlns="http://www.w3.org/2000/svg">
    <path d="M15.3147 2.37202C15.1715 2.29132 15.0071 2.2596 14.8452 2.28146C14.6834 2.30331 14.5324 2.37761 14.4142 2.49362L11.2781 5.54002L8.64498 0.420021C8.57847 0.29302 8.47985 0.186927 8.35959 0.112984C8.23933 0.0390401 8.1019 0 7.96186 0C7.82182 0 7.68439 0.0390401 7.56413 0.112984C7.44387 0.186927 7.34526 0.29302 7.27874 0.420021L4.64563 5.54002L1.5095 2.49362C1.39063 2.38133 1.24143 2.30894 1.08171 2.28608C0.921987 2.26322 0.759296 2.29096 0.615231 2.36562C0.473277 2.44194 0.357694 2.56162 0.284318 2.70828C0.210942 2.85493 0.183363 3.02138 0.20536 3.18482L1.65854 13.732C1.68406 13.922 1.77549 14.0961 1.91592 14.222C2.05634 14.3479 2.23626 14.4171 2.42239 14.4168H13.2902C13.4752 14.4178 13.6544 14.3506 13.7956 14.2274C13.9368 14.1041 14.0306 13.933 14.0602 13.7448L15.7122 3.20402C15.7389 3.03991 15.7149 2.87127 15.6436 2.72197C15.5723 2.57266 15.4572 2.45024 15.3147 2.37202Z" fill="#FFC700"/>
</svg>