<svg xmlns="http://www.w3.org/2000/svg" viewBox="0 0 64 64"><defs><style>.cls-1{fill:none;}.cls-2{fill:#fff;}.cls-3{fill:#00d6a0;}</style></defs><g id="Object"><path class="cls-1" d="M23.78,39.69v-.51a.64.64,0,0,0-.5-.62c0,.09-.05.18-.08.27a6,6,0,0,1,.05.74,6.47,6.47,0,0,1-.05.76A.66.66,0,0,0,23.78,39.69Z"/><path class="cls-1" d="M21.83,37.92c-2.32-.17-8.69-1.66-8.69-1.66A8.31,8.31,0,0,1,11,38.37c0,.13-.05.25-.07.37a5.69,5.69,0,0,0-.07.83,5.83,5.83,0,0,0,0,.59,5.42,5.42,0,0,0,.21,1,5.8,5.8,0,0,0,11,0,4.65,4.65,0,0,0,.2-1,5.85,5.85,0,0,0,0-.59,5.69,5.69,0,0,0-.07-.83,6.85,6.85,0,0,0-.2-.81Z"/><path class="cls-2" d="M17.36,47.83l.8,5.22h.95l1.48-7.77-.44,0h-.48a6.86,6.86,0,0,1-6.24,0H13l-.43,0L14,53.05H15l.79-5.22h0L15,46.39h3.12l-.78,1.44Z"/><path d="M20.59,45.28l-1.48,7.77H14l-1.48-7.77A5.84,5.84,0,0,0,7.11,51.1v2.84H26V51.1A5.85,5.85,0,0,0,20.59,45.28Z"/><polygon class="cls-3" points="14.95 53.05 18.16 53.05 17.36 47.83 17.33 47.83 18.11 46.39 14.99 46.39 15.77 47.83 15.74 47.83 14.95 53.05"/><path d="M8.36,39.18v.51A1.61,1.61,0,0,0,10,41.26h.1a6.53,6.53,0,0,0,3.33,4,6.86,6.86,0,0,0,6.24,0,6.54,6.54,0,0,0,3.34-4h.09a1.61,1.61,0,0,0,1.65-1.57v-.51a1.59,1.59,0,0,0-1.3-1.54A5.34,5.34,0,0,0,23.5,37v-.07a4.67,4.67,0,0,0,0-.52h0a6.13,6.13,0,0,0-1.06-2.92,7.33,7.33,0,0,0-1.05-1.18,5,5,0,0,0-2.68-1.43,7.5,7.5,0,0,0-2.94-.23,7.27,7.27,0,0,0-1.59.38,6.22,6.22,0,0,0-4.46,6v.13a5.24,5.24,0,0,0,0,.56A1.59,1.59,0,0,0,8.36,39.18Zm14.92-.62a.64.64,0,0,1,.5.62v.51a.66.66,0,0,1-.58.64,6.47,6.47,0,0,0,.05-.76,6,6,0,0,0-.05-.74C23.23,38.74,23.25,38.65,23.28,38.56Zm-12.39.18c0-.12,0-.24.07-.37a8.31,8.31,0,0,0,2.18-2.11s6.37,1.49,8.69,1.66H22a6.85,6.85,0,0,1,.2.81,5.69,5.69,0,0,1,.07.83,5.85,5.85,0,0,1,0,.59,4.65,4.65,0,0,1-.2,1,5.8,5.8,0,0,1-11,0,5.42,5.42,0,0,1-.21-1,5.83,5.83,0,0,1,0-.59A5.69,5.69,0,0,1,10.89,38.74Zm-1.56.44a.65.65,0,0,1,.56-.64c0,.13,0,.25,0,.37a4.77,4.77,0,0,0-.05.66,6.47,6.47,0,0,0,.05.76.66.66,0,0,1-.57-.64Z"/><path class="cls-1" d="M56.7,40v-.49a.63.63,0,0,0-.55-.61,5.88,5.88,0,0,1,0,.72,2.26,2.26,0,0,1,0,.26,5.84,5.84,0,0,1,0,.73A.63.63,0,0,0,56.7,40Z"/><path class="cls-1" d="M45.66,45.34l.42,0Z"/><path class="cls-1" d="M53,36.66s-6.23,1.43-8.5,1.6h-.18a4.06,4.06,0,0,0-.2.78,5.16,5.16,0,0,0-.07.79,5.46,5.46,0,0,0,0,.57,4.17,4.17,0,0,0,.2.93,5.7,5.7,0,0,0,10.75,0,5.69,5.69,0,0,0,.2-.93,5.44,5.44,0,0,0,0-.57,5.16,5.16,0,0,0-.07-.79c0-.12-.05-.24-.07-.36A7.85,7.85,0,0,1,53,36.66Z"/><path class="cls-1" d="M43.17,38.84c-.28.07-.61.34-.61.63V40a.63.63,0,0,0,.57.61,5.84,5.84,0,0,1-.05-.73,5.65,5.65,0,0,1,.05-.71A2.69,2.69,0,0,1,43.17,38.84Z"/><path d="M40.37,51v2.73H58.9V51a5.55,5.55,0,0,0-1.47-3.75,6.74,6.74,0,0,0,1-.51.14.14,0,0,0,.08-.14.17.17,0,0,0-.09-.14,4.55,4.55,0,0,1-1.95-1.72,3.67,3.67,0,0,0,2,.83.18.18,0,0,0,.17-.06.17.17,0,0,0,0-.17A24.21,24.21,0,0,1,57.19,41a1.59,1.59,0,0,0,.2-.24,1.42,1.42,0,0,0,.26-.81v-.49a1.44,1.44,0,0,0-.47-1.06,7.88,7.88,0,0,0-7.61-8,7.19,7.19,0,0,0-4.09,1.28,4,4,0,0,0-1.16,1A8.4,8.4,0,0,0,42,38.53h0a1.48,1.48,0,0,0-.34.93V40a1.48,1.48,0,0,0,.66,1.22,30.09,30.09,0,0,0,.86,5A5.59,5.59,0,0,0,40.37,51Zm13-4.33c-.08.15-2,1.88-2,1.88l1.28,1.24-3,3.23-3-3.23,1.28-1.24S46,46.77,46,46.62s1.17-1.16,1.17-1.16L49.63,53l2.52-7.51S53.47,46.35,53.32,46.62Zm-7.66-1.28.42,0Zm2.31,2,3.33,0-1.66,4.92h0Zm8.2-7.75a5.88,5.88,0,0,0,0-.72.63.63,0,0,1,.55.61V40a.63.63,0,0,1-.57.61,5.84,5.84,0,0,0,0-.73A2.26,2.26,0,0,0,56.17,39.58Zm-12.08-.53a4.06,4.06,0,0,1,.2-.78h.18c2.27-.17,8.5-1.6,8.5-1.6a7.85,7.85,0,0,0,2.13,2c0,.12,0,.24.07.36a5.16,5.16,0,0,1,.07.79,5.44,5.44,0,0,1,0,.57,5.69,5.69,0,0,1-.2.93,5.7,5.7,0,0,1-10.75,0,4.17,4.17,0,0,1-.2-.93,5.46,5.46,0,0,1,0-.57A5.16,5.16,0,0,1,44.09,39.05Zm-1,.08a5.65,5.65,0,0,0-.05.71,5.84,5.84,0,0,0,.05.73.63.63,0,0,1-.57-.61v-.49c0-.29.33-.56.61-.63A2.69,2.69,0,0,0,43.13,39.13Z"/><polygon class="cls-3" points="49.64 52.22 51.3 47.3 47.97 47.33 49.6 52.22 49.64 52.22"/><path class="cls-2" d="M53.32,46.62c.15-.27-1.17-1.16-1.17-1.16L49.63,53l3-3.23L51.33,48.5S53.24,46.77,53.32,46.62Z"/><path class="cls-2" d="M49.63,53l-2.51-7.51s-1.33.89-1.17,1.16,2,1.88,2,1.88l-1.28,1.24Z"/><path class="cls-1" d="M40.45,13.79v-.51a.65.65,0,0,0-.5-.62,2.76,2.76,0,0,1-.08.27,6.13,6.13,0,0,1,.05.74,6.33,6.33,0,0,1-.05.76A.66.66,0,0,0,40.45,13.79Z"/><path class="cls-1" d="M38.5,12c-2.32-.17-8.69-1.67-8.69-1.67a8.18,8.18,0,0,1-2.18,2.12c0,.12-.05.24-.07.37a5.55,5.55,0,0,0-.07.82,5.68,5.68,0,0,0,0,.59,5.23,5.23,0,0,0,.21,1,5.8,5.8,0,0,0,11,0,4.52,4.52,0,0,0,.2-1,5.65,5.65,0,0,0,0-.59,5.55,5.55,0,0,0-.07-.82,7.54,7.54,0,0,0-.2-.82Z"/><path class="cls-2" d="M34,21.93l.8,5.23h1l1.48-7.78-.44,0h-.48a6.86,6.86,0,0,1-6.24,0h-.48l-.43,0,1.48,7.78h.95l.79-5.23h0l-.78-1.43h3.12L34,21.93Z"/><path d="M37.26,19.38l-1.48,7.78H30.67l-1.48-7.78a5.85,5.85,0,0,0-5.41,5.83V28H42.67V25.21A5.86,5.86,0,0,0,37.26,19.38Z"/><polygon class="cls-3" points="31.62 27.16 34.83 27.16 34.03 21.93 34 21.93 34.78 20.5 31.66 20.5 32.44 21.93 32.41 21.93 31.62 27.16"/><path d="M25,13.28v.51a1.62,1.62,0,0,0,1.64,1.58h.1a6.51,6.51,0,0,0,3.33,4,6.86,6.86,0,0,0,6.24,0,6.49,6.49,0,0,0,3.34-4h.09a1.62,1.62,0,0,0,1.65-1.58v-.51a1.61,1.61,0,0,0-1.29-1.54c0-.22,0-.45,0-.69V11a5,5,0,0,0,0-.53h0a6.17,6.17,0,0,0-1.06-2.92,5.88,5.88,0,0,0-1-1.18,6.52,6.52,0,0,0-4-1.75,7.31,7.31,0,0,0-3.25.47,6.23,6.23,0,0,0-4.46,6v.13a5.15,5.15,0,0,0,0,.56A1.59,1.59,0,0,0,25,13.28ZM40,12.66a.65.65,0,0,1,.5.62v.51a.66.66,0,0,1-.58.64,6.33,6.33,0,0,0,.05-.76,6.13,6.13,0,0,0-.05-.74A2.76,2.76,0,0,0,40,12.66Zm-12.39.19c0-.13.05-.25.07-.37a8.18,8.18,0,0,0,2.18-2.12s6.37,1.5,8.69,1.67h.19a7.54,7.54,0,0,1,.2.82,5.55,5.55,0,0,1,.07.82,5.65,5.65,0,0,1,0,.59,4.52,4.52,0,0,1-.2,1,5.8,5.8,0,0,1-11,0,5.23,5.23,0,0,1-.21-1,5.68,5.68,0,0,1,0-.59A5.55,5.55,0,0,1,27.56,12.85ZM26,13.28a.64.64,0,0,1,.56-.63c0,.12,0,.24,0,.37a4.62,4.62,0,0,0-.05.65,6.33,6.33,0,0,0,.05.76.66.66,0,0,1-.57-.64Z"/><path class="cls-3" d="M32.35,12.94a.21.21,0,0,0-.18-.09H28a.22.22,0,0,0-.18.1.2.2,0,0,0,0,.2l.54,1.94a.23.23,0,0,0,.23.17h3.22a.22.22,0,0,0,.23-.18L32.24,14a.6.6,0,0,1,.3-.2,1.85,1.85,0,0,1,.69-.12,2,2,0,0,1,.68.11.68.68,0,0,1,.3.21l.22,1.12a.23.23,0,0,0,.23.18h3.23a.23.23,0,0,0,.23-.17l.54-1.94a.2.2,0,0,0,0-.2.22.22,0,0,0-.18-.1H34.27a.23.23,0,0,0-.18.09.21.21,0,0,0,0,.19l0,.17a2.37,2.37,0,0,0-.85-.14,2.23,2.23,0,0,0-.86.15l0-.18A.19.19,0,0,0,32.35,12.94Zm-.55.82a.43.43,0,0,1,0,.07h0l-.19,1H28.73l-.41-1.48h3.57Zm6.33-.44-.42,1.48H34.86l-.2-1h0s0-.05,0-.08l-.09-.44Z"/><path class="cls-3" d="M39.87,40.42H34.1v-9a.88.88,0,1,0-1.76,0v9.05H26.58a.89.89,0,0,0,0,1.77H39.87a.89.89,0,0,0,0-1.77Z"/></g></svg>