<svg xmlns="http://www.w3.org/2000/svg" viewBox="0 0 64 64"><defs><style>.cls-1{fill:#00d6a0;}.cls-2{fill:#ccc;}</style></defs><g id="Object"><circle cx="32" cy="32.69" r="22.76"/><polygon class="cls-1" points="22.5 42.18 35.68 36.37 28.32 29.01 22.5 42.18"/><polygon class="cls-2" points="28.32 29.01 35.68 36.37 41.49 23.19 28.32 29.01"/><path class="cls-2" d="M34,50.87a2,2,0,1,1-2-2A2,2,0,0,1,34,50.87Z"/><path class="cls-2" d="M50,34.86a2,2,0,1,1,2-2A2,2,0,0,1,50,34.86Z"/><path class="cls-2" d="M14,34.86a2,2,0,1,1,2-2A2,2,0,0,1,14,34.86Z"/><path class="cls-1" d="M34.1,13.05a.31.31,0,0,0-.22-.09h-.61a.31.31,0,0,0-.22.09.28.28,0,0,0-.09.22v2.09c0,.26,0,.5,0,.74l-.28-.47-1.6-2.53a.31.31,0,0,0-.26-.14h-.71a.31.31,0,0,0-.22.09.28.28,0,0,0-.09.22v5a.31.31,0,0,0,.31.31h.61a.31.31,0,0,0,.31-.31V16.13c0-.29,0-.55,0-.8l.34.56L33,18.43a.32.32,0,0,0,.26.15h.66a.31.31,0,0,0,.31-.31v-5A.32.32,0,0,0,34.1,13.05Z"/></g></svg>