<svg id="Bg" xmlns="http://www.w3.org/2000/svg" viewBox="0 0 64 64"><defs><style>.cls-1{fill:#fff;}.cls-2{fill:#00d6a0;}.cls-3{fill:#ccc;}.cls-4{fill:#4d4e50;}</style></defs><path d="M30.92,55.59a23.48,23.48,0,0,0,11-2.75A7.75,7.75,0,0,1,41,49.22a8,8,0,0,1,.31-2.2,18.19,18.19,0,1,1,5.15-5.31,8,8,0,0,1,2.31-.37,7.75,7.75,0,0,1,3.43.78A23.6,23.6,0,1,0,30.92,55.59Z"/><path class="cls-1" d="M33.74,29.39V25.48a6.19,6.19,0,0,1,1.42.93,1.48,1.48,0,0,0,1,.35,1.85,1.85,0,0,0,.71-.2h0l2.33-1.46a.91.91,0,0,0,.49-.76.85.85,0,0,0-.31-.66,9.38,9.38,0,0,0-5.61-3.08v-2.2a1.12,1.12,0,0,0-1.13-1.13H30.53a1.13,1.13,0,0,0-1.13,1.13v2.14a10.52,10.52,0,0,0-2.91.82c-2.8,1.27-4.17,3.18-4.12,5.71a5.52,5.52,0,0,0,1.12,3.3q1.83,2.45,5.91,3.07v4.88A8.41,8.41,0,0,1,26.06,36a1.09,1.09,0,0,0-.92-.45,2.25,2.25,0,0,0-.62.18h0L22.4,37a.91.91,0,0,0-.53.83.88.88,0,0,0,.24.6,10.33,10.33,0,0,0,2.22,2.21,10.86,10.86,0,0,0,5.07,2.17V44.7a1.13,1.13,0,0,0,1.13,1.13h2.08a1.12,1.12,0,0,0,1.13-1.13V42.77a10.76,10.76,0,0,0,4.34-1.57,6.19,6.19,0,0,0,3-5.3,5.23,5.23,0,0,0-1.17-3.57A9.37,9.37,0,0,0,33.74,29.39Zm-4.34-.55A1.84,1.84,0,0,1,28,27.07a1.78,1.78,0,0,1,1.21-1.63l.16-.07ZM34.2,38a3.33,3.33,0,0,1-.46.24V34c1.13.35,1.69,1,1.68,2A2.3,2.3,0,0,1,34.2,38Z"/><path class="cls-2" d="M28,27.07a1.84,1.84,0,0,0,1.37,1.77V25.37l-.16.07A1.78,1.78,0,0,0,28,27.07Z"/><path class="cls-2" d="M33.74,34v4.28A3.33,3.33,0,0,0,34.2,38a2.3,2.3,0,0,0,1.22-2.07C35.43,35,34.87,34.3,33.74,34Z"/><path class="cls-2" d="M46.49,41.71A18.14,18.14,0,1,0,41.34,47,7.85,7.85,0,0,1,46.49,41.71Zm-8.41-.51a10.76,10.76,0,0,1-4.34,1.57V44.7a1.12,1.12,0,0,1-1.13,1.13H30.53A1.13,1.13,0,0,1,29.4,44.7V42.77a10.86,10.86,0,0,1-5.07-2.17,10.33,10.33,0,0,1-2.22-2.21.88.88,0,0,1-.24-.6A.91.91,0,0,1,22.4,37l2.12-1.24h0a2.25,2.25,0,0,1,.62-.18,1.09,1.09,0,0,1,.92.45,8.41,8.41,0,0,0,3.34,2.33V33.43q-4.08-.63-5.91-3.07a5.52,5.52,0,0,1-1.12-3.3c-.05-2.53,1.32-4.44,4.12-5.71a10.52,10.52,0,0,1,2.91-.82V18.39a1.13,1.13,0,0,1,1.13-1.13h2.08a1.12,1.12,0,0,1,1.13,1.13v2.2a9.38,9.38,0,0,1,5.61,3.08.85.85,0,0,1,.31.66.91.91,0,0,1-.49.76l-2.33,1.46h0a1.85,1.85,0,0,1-.71.2,1.48,1.48,0,0,1-1-.35,6.19,6.19,0,0,0-1.42-.93v3.91a9.37,9.37,0,0,1,6.15,2.94,5.23,5.23,0,0,1,1.17,3.57A6.19,6.19,0,0,1,38.08,41.2Z"/><path class="cls-3" d="M54.68,49.12A5.83,5.83,0,1,0,48.9,55,5.83,5.83,0,0,0,54.68,49.12ZM53,50.41H50.1v2.86H47.61V50.41H44.75V47.92h2.86V45.06H50.1v2.86H53Z"/><path class="cls-4" d="M46.49,41.71A7.85,7.85,0,0,0,41.34,47a8,8,0,0,0-.31,2.2A7.75,7.75,0,0,0,42,52.84,7.82,7.82,0,1,0,52.23,42.12a7.75,7.75,0,0,0-3.43-.78A8,8,0,0,0,46.49,41.71ZM43,49.21A5.83,5.83,0,1,1,48.9,55,5.84,5.84,0,0,1,43,49.21Z"/><polygon class="cls-2" points="50.1 45.06 47.61 45.06 47.61 47.92 44.75 47.92 44.75 50.41 47.61 50.41 47.61 53.27 50.1 53.27 50.1 50.41 52.96 50.41 52.96 47.92 50.1 47.92 50.1 45.06"/></svg>