<svg xmlns="http://www.w3.org/2000/svg" viewBox="0 0 64 64"><defs><style>.cls-1{fill:#ccc;}.cls-2{fill:#4d4e50;}.cls-3{fill:#00d6a0;}.cls-4{fill:#c8c8c8;}</style></defs><g id="Object"><path class="cls-1" d="M46.78,14.92h-.14a.47.47,0,0,0-.42.51l.16,1.68a.46.46,0,0,0,.34.4,10.07,10.07,0,0,1,6.41,5.12.47.47,0,0,0,.44.24l1.72-.16a.46.46,0,0,0,.36-.23.48.48,0,0,0,0-.42A12.61,12.61,0,0,0,46.78,14.92Z"/><path class="cls-2" d="M48.16,10h-.1a.48.48,0,0,0-.42.51l.16,1.66a.44.44,0,0,0,.38.4,14.2,14.2,0,0,1,11.07,9,.47.47,0,0,0,.47.29l1.66-.16a.45.45,0,0,0,.39-.61A16.8,16.8,0,0,0,48.16,10Z"/><path class="cls-2" d="M4.2,51.76a3.59,3.59,0,0,0,3.59,3.59H9.68a3.58,3.58,0,0,0,3.53-2.92L14,50.16H4.2Z"/><path class="cls-2" d="M42.05,52.43a3.58,3.58,0,0,0,3.53,2.92h1.89a3.59,3.59,0,0,0,3.59-3.59v-1.6H41.28Z"/><polygon class="cls-1" points="4.2 50.16 13.98 50.16 14.24 49.38 4.2 49.38 4.2 50.16"/><polygon class="cls-3" points="4.2 49.38 14.24 49.38 14.89 47.48 4.2 47.48 4.2 49.38"/><path d="M43.17,21.07a10.79,10.79,0,0,0-8.34,2.83,2,2,0,0,1-1.34.51H21.77a2,2,0,0,1-1.34-.51,10.78,10.78,0,0,0-8.34-2.83A10.87,10.87,0,0,0,4.2,38.18v9.3H14.89l1.8-5.33a10.76,10.76,0,0,0,2.95-1.59,3.11,3.11,0,0,1,1.85-.63H33.77a3.11,3.11,0,0,1,1.85.63,11.05,11.05,0,0,0,3,1.59l1.8,5.33H51.06v-9.3a10.87,10.87,0,0,0-7.89-17.11ZM13,40.64a8.79,8.79,0,1,1,8.79-8.79A8.78,8.78,0,0,1,13,40.64Zm30-17a2.51,2.51,0,1,1-2.5,2.5A2.5,2.5,0,0,1,43,23.67Zm-4.65,9.66a2.5,2.5,0,1,1,2.5-2.5A2.51,2.51,0,0,1,38.33,33.33ZM43,38a2.51,2.51,0,1,1,2.51-2.5A2.5,2.5,0,0,1,43,38Zm4.66-4.66a2.5,2.5,0,1,1,2.51-2.5A2.5,2.5,0,0,1,47.64,33.33Z"/><polygon class="cls-3" points="41.02 49.38 51.06 49.38 51.06 47.48 40.37 47.48 41.02 49.38"/><polygon class="cls-1" points="41.28 50.16 51.06 50.16 51.06 49.38 41.02 49.38 41.28 50.16"/><path class="cls-3" d="M13,23.06a8.79,8.79,0,1,0,8.79,8.79A8.79,8.79,0,0,0,13,23.06Zm6.14,10.8H15V38H11V33.86H6.85v-4H11V25.71h4v4.13h4.13Z"/><polygon class="cls-1" points="15 25.71 10.98 25.71 10.98 29.84 6.85 29.84 6.85 33.86 10.98 33.86 10.98 37.99 15 37.99 15 33.86 19.13 33.86 19.13 29.84 15 29.84 15 25.71"/><path class="cls-1" d="M43,28.68a2.51,2.51,0,1,0-2.5-2.51A2.51,2.51,0,0,0,43,28.68Z"/><path class="cls-4" d="M43,33a2.51,2.51,0,1,0,2.51,2.51A2.5,2.5,0,0,0,43,33Z"/><path class="cls-1" d="M38.33,28.33a2.5,2.5,0,1,0,2.5,2.5A2.51,2.51,0,0,0,38.33,28.33Z"/><path class="cls-4" d="M47.64,28.33a2.5,2.5,0,1,0,2.51,2.5A2.5,2.5,0,0,0,47.64,28.33Z"/></g></svg>