<svg xmlns="http://www.w3.org/2000/svg" viewBox="0 0 64 64"><defs><style>.cls-1{fill:#00d6a0;}.cls-2{stroke:#00d6a0;stroke-miterlimit:10;stroke-width:0.25px;}</style></defs><g id="Object"><path class="cls-1" d="M59.28,21.18,55.84,17.6a.56.56,0,0,1,.31-.85,3.62,3.62,0,0,0,1.44-.85,3.51,3.51,0,1,0-4.85-5.07,3.57,3.57,0,0,0-.91,1.4.56.56,0,0,1-.87.26L47.54,8.9l-.15-.1a.55.55,0,0,0-.78,0l-4,3.8a.54.54,0,0,1-.57-.38,3.6,3.6,0,0,0-3-2.49,1.51,1.51,0,0,0-.52,0c-3.37.6-4.24,4.1-2.42,6a3.32,3.32,0,0,0,1.34.86.53.53,0,0,1,.33.61l-4,3.83a.58.58,0,0,0,0,.81l3.61,3.76.07,0,0,0a.57.57,0,0,0,.95-.29,3.84,3.84,0,0,1,3.14-2.75,4,4,0,0,1,1,.06,3.9,3.9,0,0,1,1.76,1,3.85,3.85,0,0,1,.92,1.8,3.57,3.57,0,0,1,0,1,3.83,3.83,0,0,1-2.89,3,.57.57,0,0,0-.33.94l0,0,0,.07,3.59,3.78a.58.58,0,0,0,.81,0l4-3.82a.55.55,0,0,1,.61.37A3.21,3.21,0,0,0,52,32.23c1.82,1.89,5.35,1.18,6.1-2.16a1.46,1.46,0,0,0,0-.51,3.59,3.59,0,0,0-2.35-3.07.53.53,0,0,1-.36-.58l4-3.79a.57.57,0,0,0,.05-.79Z"/><path class="cls-2" d="M34.74,37.44l-5,0-.18,0a.56.56,0,0,0-.48.33.87.87,0,0,1,.05.28v5.67l-.31-.06a.53.53,0,0,1-.46,0l-.09,0a3.12,3.12,0,0,0-.52,0h-.09a2.76,2.76,0,0,0-.54-.07A3.18,3.18,0,0,0,24,46.42c0,.14,0,.27,0,.42a3.85,3.85,0,0,0,.49,1.8c.07.13.14.27.23.41a1.14,1.14,0,0,0,.29.29,3.61,3.61,0,0,0,2.11.73,4.55,4.55,0,0,0,.53,0h.09l.36,0,.26-.11a.5.5,0,0,1,.53,0l.25,0v5.77a.76.76,0,0,1,0,.21.55.55,0,0,0,.5.33h5.33a.57.57,0,0,0,.45-.89,3.81,3.81,0,0,1,.19-4.16,3.52,3.52,0,0,1,.72-.67A3.81,3.81,0,0,1,38.24,50a3.87,3.87,0,0,1,1.94.58,3.57,3.57,0,0,1,.73.67,3.84,3.84,0,0,1,.16,4.17.57.57,0,0,0,.45.89h.11l5.22,0a.56.56,0,0,0,.56-.57l0-5.53a.52.52,0,0,1,.68-.18,3.38,3.38,0,0,0,1.55.38c2.62,0,4.56-3,2.67-5.89a1.45,1.45,0,0,0-.36-.38,3.6,3.6,0,0,0-3.84-.42.53.53,0,0,1-.67-.14l0-5.5a.56.56,0,0,0-.53-.58l-.18,0h-5a.56.56,0,0,1-.41-.81A3.52,3.52,0,1,0,34.77,35a3.56,3.56,0,0,0,.39,1.63A.58.58,0,0,1,34.74,37.44Z"/><path class="cls-2" d="M5.25,26c-1.9,2.84,0,5.89,2.65,5.9a3.22,3.22,0,0,0,1.54-.38.55.55,0,0,1,.68.19v5.53a.45.45,0,0,0,0,.2.71.71,0,0,1,.45-.16h0a.58.58,0,0,1,.19,0h4.93A.28.28,0,0,0,16,37l0-.13h0v0a3.82,3.82,0,0,1-.4-1.69h0A4.06,4.06,0,0,1,15.67,34a3.72,3.72,0,0,1,3.55-2.73h.16a3.87,3.87,0,0,1,3.71,3.81h0a3.88,3.88,0,0,1-.4,1.71v0h0l0,.12a.29.29,0,0,0,.23.28h4.92a.58.58,0,0,1,.19,0h0a.73.73,0,0,1,.46.16l0-.15,0-5.54a.53.53,0,0,1,.68-.18,3.23,3.23,0,0,0,1.54.39c2.63,0,4.57-3,2.67-5.89a1.31,1.31,0,0,0-.36-.38,3.6,3.6,0,0,0-3.84-.42.52.52,0,0,1-.66-.15l0-5.49A.57.57,0,0,0,28,19l-.19,0H22.88a.57.57,0,0,1-.42-.81,3.63,3.63,0,0,0,.4-1.62,3.51,3.51,0,1,0-7,0,3.69,3.69,0,0,0,.38,1.63.56.56,0,0,1-.41.8l-5,0-.18,0a.56.56,0,0,0-.54.57v5.5a.54.54,0,0,1-.67.14,3.61,3.61,0,0,0-3.84.4A1.49,1.49,0,0,0,5.25,26Z"/><path class="cls-2" d="M10.39,50l0,.07v5.63a.29.29,0,0,0,.28.29h5.33a.23.23,0,0,0,.18-.08.3.3,0,0,0,.08-.2l-.06-.18a3.9,3.9,0,0,1-.57-2,4.44,4.44,0,0,1,.76-2.44h0l0,0a3.77,3.77,0,0,1,.78-.71h0a4.16,4.16,0,0,1,2.08-.63h0a4.11,4.11,0,0,1,2.08.63h0a3.77,3.77,0,0,1,.78.71v0h0A4.52,4.52,0,0,1,23,53.5a3.82,3.82,0,0,1-.58,2l-.05.18a.3.3,0,0,0,.08.2.22.22,0,0,0,.18.08H28a.29.29,0,0,0,.27-.29V50.64l-.36,0h0a2.35,2.35,0,0,1-.53-.07,3.31,3.31,0,0,1-.55,0,4.17,4.17,0,0,1-2.36-.78l-.09,0a1.68,1.68,0,0,1-.43-.45A5,5,0,0,1,23.29,48a3.15,3.15,0,0,1-.09-.42A3.82,3.82,0,0,1,24.4,44,3.62,3.62,0,0,1,26.82,43v0a3.53,3.53,0,0,1,.61.07,5.09,5.09,0,0,1,.56,0h.27v-5a.28.28,0,0,0-.24-.29h-.1l-.09,0h-5a.86.86,0,0,1-.69-.77v-.08a.72.72,0,0,1,.08-.35h0v0h0A3.33,3.33,0,0,0,22.57,35h0a3.66,3.66,0,0,0-.14-.92,3.15,3.15,0,0,0-3-2.32h-.16a3,3,0,0,0-1.79.59,3.31,3.31,0,0,0-1.21,1.73,3.46,3.46,0,0,0-.11.52,2.85,2.85,0,0,0,0,.4h0a3.2,3.2,0,0,0,.36,1.48h0v0h0a.93.93,0,0,1,.08.35V37a.86.86,0,0,1-.69.78H10.69a.3.3,0,0,0-.27.29v5.61l-.06.08a.87.87,0,0,1-.64.3A.85.85,0,0,1,9.35,44a3,3,0,0,0-1.41-.35,3.66,3.66,0,0,0-2.13.74,1,1,0,0,0-.29.3,3.93,3.93,0,0,0-.72,2.21A3.2,3.2,0,0,0,7.93,50.1h0a3.07,3.07,0,0,0,1.41-.35.77.77,0,0,1,.36-.09A.82.82,0,0,1,10.39,50Z"/></g></svg>