<svg width="160" height="30" viewBox="0 0 160 30" fill="none" xmlns="http://www.w3.org/2000/svg">
    <path d="M32.6828 28.9124V14.4578H36.3997V19.9507H41.7693V14.4578H45.4862V28.9124H41.7693V23.0067H36.3997V28.9124H32.6828Z" fill="black"/>
    <path d="M54.8787 29.1813C53.9608 29.1862 53.0478 29.0469 52.1731 28.7685C51.3376 28.5043 50.5721 28.056 49.933 27.4564C49.2633 26.8147 48.7447 26.0321 48.4146 25.1652C48.0434 24.2351 47.8578 23.1092 47.8578 21.7876V21.3748C47.8578 20.1097 48.0434 19.0222 48.4146 18.1123C48.7452 17.2634 49.2644 16.5007 49.933 15.8819C50.5796 15.2999 51.3434 14.8634 52.1731 14.6019C53.9349 14.0515 55.8226 14.0515 57.5844 14.6019C58.4138 14.8638 59.1776 15.3002 59.8244 15.8819C60.493 16.5007 61.0123 17.2634 61.3428 18.1123C61.714 19.0211 61.8996 20.1086 61.8996 21.3748V21.7876C61.8996 23.1113 61.714 24.2372 61.3428 25.1652C61.0128 26.0321 60.4941 26.8147 59.8244 27.4564C59.1851 28.0556 58.4197 28.504 57.5844 28.7685C56.7097 29.0469 55.7966 29.1862 54.8787 29.1813ZM54.8787 26.0804C55.2862 26.0819 55.6912 26.0159 56.0771 25.8852C56.4677 25.7498 56.8163 25.5149 57.0883 25.2036C57.4119 24.8168 57.6512 24.3666 57.7908 23.882C57.9866 23.2005 58.0773 22.4932 58.0596 21.7844V21.3716C58.0786 20.6937 57.9878 20.0172 57.7908 19.3683C57.647 18.9071 57.4077 18.4813 57.0883 18.1187C56.8129 17.8186 56.4646 17.5949 56.0771 17.4691C55.2964 17.2209 54.4579 17.2209 53.6771 17.4691C53.2897 17.5949 52.9413 17.8186 52.6659 18.1187C52.3466 18.4813 52.1072 18.9071 51.9635 19.3683C51.7664 20.0172 51.6757 20.6937 51.6947 21.3716V21.7844C51.677 22.4932 51.7676 23.2005 51.9635 23.882C52.1031 24.3666 52.3423 24.8168 52.6659 25.2036C52.938 25.5149 53.2865 25.7498 53.6771 25.8852C54.0641 26.0163 54.4701 26.0822 54.8787 26.0804Z" fill="black"/>
    <path d="M64.2805 28.9124V14.4578H68.0805L72.0806 21.7875L76.0454 14.4578H79.7623V28.9124H76.0518V20.6403L73.0566 26.1332H70.9925L67.9989 20.6403V28.9124H64.2805Z" fill="black"/>
    <path d="M82.6598 28.9124V14.4578H93.1927V17.3074H86.3782V20.1363H92.5719V22.8211H86.3782V26.0628H93.1927V28.9124H82.6598Z" fill="black"/>
    <path d="M101.66 29.1812C100.775 29.1932 99.8926 29.0647 99.0473 28.8004C98.3122 28.5694 97.6358 28.1818 97.0649 27.6644C96.5057 27.1389 96.0748 26.4918 95.8057 25.7732C95.4927 24.9278 95.3413 24.0312 95.3593 23.1299V14.4578H99.0761V22.6963C99.0706 23.1887 99.1157 23.6803 99.2105 24.1635C99.2812 24.5454 99.4329 24.9076 99.6553 25.2259C99.8596 25.5074 100.136 25.7285 100.455 25.866C100.835 26.0206 101.244 26.0947 101.654 26.0836C102.077 26.097 102.499 26.023 102.892 25.866C103.214 25.7319 103.491 25.5101 103.692 25.2259C103.907 24.909 104.051 24.5502 104.116 24.1731C104.203 23.6928 104.245 23.2053 104.239 22.7171V14.4578H107.956V23.1299C107.973 24.0303 107.825 24.9262 107.519 25.7732C107.257 26.493 106.829 27.1409 106.27 27.6644C105.699 28.1818 105.024 28.5694 104.289 28.8004C103.438 29.065 102.551 29.1935 101.66 29.1812Z" fill="black"/>
    <path d="M110.643 28.9124V14.4578H113.927L119.527 22.5107V14.4578H123.452V28.9124H119.936L114.361 20.8579V28.9124H110.643Z" fill="black"/>
    <path d="M126.545 28.9124V14.4578H130.262V28.9124H126.545Z" fill="black"/>
    <path d="M136.767 28.9124V17.5138H132.327V14.4578H144.924V17.5138H140.479V28.9124H136.767Z" fill="black"/>
    <path d="M151.326 28.9124V23.5027L145.957 14.4578H150.253L153.267 19.8259L156.118 14.4578H160L155.04 23.5027V28.9124H151.326Z" fill="black"/>
    <path d="M7.75627 26.0804C9.19629 25.2196 10.6123 24.4004 11.9355 23.578C12.0539 23.5044 13.3995 22.6788 13.5163 22.6052L13.7564 24.5252L15.7196 21.6963L16.3468 20.7875L17.6812 18.8563L15.6684 19.0163L14.2412 19.1315L10.8011 19.4115L12.5611 20.7491C12.4379 20.8163 11.0891 21.6323 10.9611 21.6963C8.6904 22.9319 6.35411 24.0429 3.96261 25.0244C1.75778 25.906 0.285762 26.226 0.0361583 25.7908C-0.123844 25.506 0.252161 24.9268 1.06497 24.1428C1.98274 23.2874 2.95434 22.4916 3.97381 21.7603V11.2002L9.59789 6.84174V18.2163H17.078V6.84174L22.7053 11.2002C24.9245 10.3218 26.3933 10.0034 26.6429 10.437C26.9181 10.917 25.6829 12.197 23.4541 13.8994C23.2162 14.0818 22.9666 14.269 22.7053 14.461C20.6876 15.9411 20.0764 16.4659 17.0796 18.2227L19.0876 18.0627L17.8252 19.8915C21.0445 17.7155 21.4605 16.9923 22.7053 15.6627V29.1813H17.0796V25.2804H9.59789V29.1765H3.97381C3.97381 29.1765 4.08102 28.2788 7.75627 26.0804Z" fill="url(#paint0_linear_349_9998)"/>
    <path d="M24.1066 8.31692V9.91054L13.3561 1.59362L2.57031 9.93614V8.34412L10.3688 2.31203L13.3561 0L16.3449 2.31203L24.1066 8.31692Z" fill="url(#paint1_linear_349_9998)"/>
    <defs>
        <linearGradient id="paint0_linear_349_9998" x1="3.87941" y1="29.6485" x2="24.8765" y2="8.64976" gradientUnits="userSpaceOnUse">
            <stop stop-color="#096872"/>
            <stop offset="0.51" stop-color="#498484"/>
            <stop offset="1" stop-color="#096872"/>
        </linearGradient>
        <linearGradient id="paint1_linear_349_9998" x1="7.54958" y1="14.9154" x2="19.1273" y2="3.33765" gradientUnits="userSpaceOnUse">
            <stop stop-color="#096872"/>
            <stop offset="0.51" stop-color="#498484"/>
            <stop offset="1" stop-color="#096872"/>
        </linearGradient>
    </defs>
</svg>
