<svg width="14" height="14" viewBox="0 0 14 14" fill="currentColor" xmlns="http://www.w3.org/2000/svg">
    <path d="M12.832 7.21969C12.8197 7.34651 12.808 7.47264 12.7957 7.59878C12.75 8.02539 12.6492 8.44431 12.4958 8.84504C12.1964 9.63566 11.7113 10.3429 11.0814 10.9073C10.4514 11.4717 9.69495 11.8767 8.87567 12.0882C8.10576 12.2837 7.30142 12.3016 6.52356 12.1405C5.74571 11.9795 5.01475 11.6437 4.38606 11.1586C4.21861 11.0298 4.06694 10.8844 3.90567 10.7419C3.89367 10.7307 3.88244 10.7188 3.87204 10.7062L4.67704 9.9021C5.50057 10.6795 6.48537 11.0956 7.63214 11.0846C8.56599 11.0843 9.46979 10.7549 10.1844 10.1544C10.8973 9.56671 11.39 8.75516 11.582 7.85201C11.774 6.94886 11.6542 6.00736 11.2419 5.18098C10.3841 3.46034 8.49204 2.57603 6.59586 3.03121C4.79028 3.46171 3.77322 4.92185 3.56733 6.15852L4.86645 5.96657L3.00939 8.56535C2.9689 8.50983 2.93253 8.46047 2.89753 8.41043C2.41028 7.72217 1.92302 7.03415 1.43577 6.34635C1.34792 6.22227 1.25665 6.10025 1.16675 5.97686V5.96383L2.39381 6.14412C2.39998 6.1119 2.40479 6.08722 2.4089 6.06186C2.55806 5.16652 2.94536 4.32768 3.53028 3.63309C4.28548 2.71893 5.33296 2.09264 6.49635 1.85967C7.06351 1.74198 7.64624 1.71882 8.22096 1.79111C9.00966 1.88227 9.76614 2.15621 10.4301 2.59111C11.2489 3.11643 11.9039 3.86047 12.3208 4.73882C12.5907 5.29651 12.7556 5.89905 12.8073 6.51635C12.8149 6.59999 12.8238 6.68362 12.832 6.76657V7.21969Z"/>
    <path d="M6.30615 8.15825C6.33086 8.06982 6.35008 7.97933 6.38027 7.89296C6.53262 7.4652 6.68681 7.03812 6.84282 6.61173C6.8693 6.52906 6.91381 6.45328 6.97315 6.38986C7.03248 6.32644 7.10517 6.27695 7.18596 6.24498C7.95596 5.93147 8.7239 5.6134 9.48978 5.29075C9.96674 5.08989 10.3051 5.50806 10.292 5.87138C10.2928 5.97928 10.2598 6.08473 10.1975 6.17289C10.1352 6.26105 10.0468 6.3275 9.94478 6.36289C9.27772 6.63298 8.60975 6.90033 7.94086 7.16494C7.91621 7.17374 7.89402 7.18828 7.87611 7.20735C7.85821 7.22643 7.84512 7.24949 7.83792 7.27462C7.70066 7.64846 7.56341 8.0216 7.42615 8.39407C7.33831 8.62646 7.16331 8.74916 6.93684 8.7471C6.77768 8.74338 6.62546 8.68132 6.50916 8.57273C6.39285 8.46414 6.3206 8.31662 6.30615 8.15825Z"/>
</svg>
