<svg id="Слой_2" data-name="Слой 2" xmlns="http://www.w3.org/2000/svg" xmlns:xlink="http://www.w3.org/1999/xlink" viewBox="0 0 1596.52 433.71"><defs><style>.cls-1,.cls-2,.cls-3,.cls-4,.cls-5,.cls-6{stroke-miterlimit:10;stroke-width:2px;}.cls-1{stroke:url(#Earthtone_29_Radial);}.cls-2{stroke:url(#Earthtone_29_Radial-2);}.cls-3{stroke:url(#Earthtone_29_Radial-3);}.cls-4{stroke:url(#Earthtone_29_Radial-4);}.cls-5{stroke:url(#Earthtone_29_Radial-5);}.cls-6{stroke:url(#Earthtone_29_Radial-6);}</style><radialGradient id="Earthtone_29_Radial" cx="57.68" cy="139.33" r="46.35" gradientUnits="userSpaceOnUse"><stop offset="0" stop-color="#7a9298"/><stop offset="0.54" stop-color="#405d64"/><stop offset="1" stop-color="#163538"/></radialGradient><radialGradient id="Earthtone_29_Radial-2" cx="57.68" cy="294.38" r="46.35" xlink:href="#Earthtone_29_Radial"/><radialGradient id="Earthtone_29_Radial-3" cx="326.8" cy="294.38" r="46.35" xlink:href="#Earthtone_29_Radial"/><radialGradient id="Earthtone_29_Radial-4" cx="326.8" cy="139.33" r="46.35" xlink:href="#Earthtone_29_Radial"/><radialGradient id="Earthtone_29_Radial-5" cx="192.81" cy="370.2" r="46.35" xlink:href="#Earthtone_29_Radial"/><radialGradient id="Earthtone_29_Radial-6" cx="192.81" cy="63.51" r="46.35" xlink:href="#Earthtone_29_Radial"/></defs><circle class="cls-1" cx="57.68" cy="139.33" r="45.35"/><circle class="cls-2" cx="57.68" cy="294.38" r="45.35"/><circle class="cls-3" cx="326.8" cy="294.38" r="45.35"/><circle class="cls-4" cx="326.8" cy="139.33" r="45.35"/><circle class="cls-5" cx="192.81" cy="370.2" r="45.35"/><circle class="cls-6" cx="192.81" cy="63.51" r="45.35"/><path d="M541.07,286.93v-140h55.4q22.8,0,39.9,8.6a62.38,62.38,0,0,1,26.4,24.4q9.3,15.8,9.3,36.8,0,21.2-9.3,37.1a62.17,62.17,0,0,1-26.4,24.5q-17.1,8.6-39.9,8.6Zm54.8-13.8q18.2,0,31.8-6.9a49.91,49.91,0,0,0,21-19.5q7.4-12.6,7.4-29.8,0-17.4-7.4-30a49.18,49.18,0,0,0-21.1-19.4q-13.7-6.79-31.9-6.8h-39.2v112.4Z"/><path d="M717.67,160.73v112.4h92.6v13.8H702.47v-140h105.8v13.8Zm-2,61.4v-13.8h82v13.8Z"/><path d="M824.27,286.93l55.2-72.8,8.2-9.4,43.8-57.8h18.2l-52.2,69-8.8,10.8-46.2,60.2Zm110,0-46-60.2-8.8-11-52.6-68.8h18.4l43.8,57.6,8.2,9.8,55.2,72.6Z"/><path d="M1030.67,288.93a73.31,73.31,0,0,1-36.8-9.4,68.56,68.56,0,0,1-26.1-25.9,75.45,75.45,0,0,1,0-73.3,69.89,69.89,0,0,1,25.9-25.9,72.09,72.09,0,0,1,36.8-9.5,74.77,74.77,0,0,1,29.4,5.5,75.81,75.81,0,0,1,23.6,15.9l-10,9.4a61.9,61.9,0,0,0-18.8-13,58.28,58.28,0,0,0-23.8-4.6,55.26,55.26,0,0,0-29,7.8,56.17,56.17,0,0,0-20.5,21.3,62.39,62.39,0,0,0,.1,59.5,56.32,56.32,0,0,0,20.6,21.1,55.1,55.1,0,0,0,28.6,7.7,58.68,58.68,0,0,0,23.9-4.8,61.4,61.4,0,0,0,19.3-13.4l10,9.4a69.91,69.91,0,0,1-23.5,16.3A74.39,74.39,0,0,1,1030.67,288.93Z"/><path d="M1171.87,288.93q-20.8,0-37.3-9.3a67.76,67.76,0,0,1-25.9-25.6q-9.4-16.31-9.4-37.1,0-20.6,9.4-37a67.6,67.6,0,0,1,25.9-25.7q16.5-9.3,37.3-9.3t37.3,9.3a67.76,67.76,0,0,1,25.9,25.6q9.39,16.3,9.4,37.1,0,20.59-9.4,37a67.6,67.6,0,0,1-25.9,25.7Q1192.67,288.93,1171.87,288.93Zm0-14a58,58,0,0,0,29.2-7.4,52.5,52.5,0,0,0,20.3-20.6,65.29,65.29,0,0,0,0-60,52.5,52.5,0,0,0-20.3-20.6,61.11,61.11,0,0,0-58.3,0,52.65,52.65,0,0,0-20.2,20.6q-7.3,13.2-7.3,30t7.3,30a52.65,52.65,0,0,0,20.2,20.6A57.46,57.46,0,0,0,1171.87,274.93Z"/><path d="M1341.27,288.93q-20.8,0-37.3-9.3a67.69,67.69,0,0,1-25.9-25.6q-9.4-16.31-9.4-37.1,0-20.6,9.4-37a67.53,67.53,0,0,1,25.9-25.7q16.5-9.3,37.3-9.3t37.3,9.3a67.76,67.76,0,0,1,25.9,25.6q9.39,16.3,9.4,37.1,0,20.59-9.4,37a67.6,67.6,0,0,1-25.9,25.7Q1362.07,288.93,1341.27,288.93Zm0-14a58,58,0,0,0,29.2-7.4,52.5,52.5,0,0,0,20.3-20.6,65.29,65.29,0,0,0,0-60,52.5,52.5,0,0,0-20.3-20.6,61.11,61.11,0,0,0-58.3,0,52.58,52.58,0,0,0-20.2,20.6q-7.31,13.2-7.3,30t7.3,30a52.58,52.58,0,0,0,20.2,20.6A57.46,57.46,0,0,0,1341.27,274.93Z"/><path d="M1458.66,240.53v-14h37.6q13.4,0,22.8-3.7a29.86,29.86,0,0,0,14.4-11.2q5-7.5,5-18.3,0-15.79-11-24.2t-31-8.4h-37.8l-14.2-13.8h52.2q17.8,0,30.7,5.5t19.8,16q6.9,10.5,6.9,25.1t-7,25.2q-7,10.61-20,16.2t-30.8,5.6Zm-14.2,46.4v-140h15.4v140Z"/></svg>