<svg id="Шар_1" data-name="Шар 1" xmlns="http://www.w3.org/2000/svg" viewBox="0 0 1048.27 359.86"><path d="M71.54,256.89V107.82h31.17l47.55,60.25,47.35-60.25H229V256.89h-30.4v-100l-48.32,61.29L101.74,157.1v99.79Z"/><path d="M252.36,256.89V107.82h31.18l47.54,60.25,47.35-60.25H409.8V256.89H379.41v-100l-48.33,61.29L282.56,157.1v99.79Z"/><path d="M433.19,256.89V107.82h31.17l47.55,60.25,47.35-60.25h31.37V256.89h-30.4v-100l-48.32,61.29L463.39,157.1v99.79Z"/><path d="M652.6,227H608.55V215.28H652.6Z"/><path d="M724.87,256.89H663v-24a20.53,20.53,0,0,1,.4-3.92,21.73,21.73,0,0,1,1.24-4.11,19.18,19.18,0,0,1,2.19-3.89,15.21,15.21,0,0,1,3.24-3.27,15.58,15.58,0,0,1,4.39-2.27,17.32,17.32,0,0,1,5.64-.85h27.52a4.74,4.74,0,0,0,3.68-1.32,5.59,5.59,0,0,0,1.2-3.87v-5.74a5.79,5.79,0,0,0-1.22-4,4.59,4.59,0,0,0-3.57-1.35H668.52v-13h39.21a17.13,17.13,0,0,1,5.59.85,15.56,15.56,0,0,1,7.65,5.53,19.57,19.57,0,0,1,2.23,3.87,20.67,20.67,0,0,1,1.67,8v5.84a19.12,19.12,0,0,1-1.71,8.51,17.36,17.36,0,0,1-4.3,5.64,16.75,16.75,0,0,1-5.57,3.14,17.9,17.9,0,0,1-5.56,1H680.12a5.35,5.35,0,0,0-2.4.45,3.46,3.46,0,0,0-1.38,1.2,5.21,5.21,0,0,0-.73,1.7c-.16.63-.28,1.26-.38,1.89v11h49.64Z"/><path d="M814.15,227a32,32,0,0,1-1.06,8.31,30.69,30.69,0,0,1-3,7.26,29.15,29.15,0,0,1-4.56,6A29.59,29.59,0,0,1,799.8,253a27.86,27.86,0,0,1-6.65,2.87,26.41,26.41,0,0,1-7.18,1h-22a26.61,26.61,0,0,1-7.23-1,28,28,0,0,1-6.65-2.87,29.89,29.89,0,0,1-5.75-4.52,28.34,28.34,0,0,1-4.53-6,31.07,31.07,0,0,1-3-7.26,32,32,0,0,1-1.06-8.31V215.28a30.68,30.68,0,0,1,2.33-12.08,29.93,29.93,0,0,1,6.22-9.45,28.33,28.33,0,0,1,9-6.19,26.31,26.31,0,0,1,10.63-2.22h22a26,26,0,0,1,7.18,1,27.43,27.43,0,0,1,6.65,2.86,29.59,29.59,0,0,1,5.75,4.52,29.15,29.15,0,0,1,4.56,6,30.69,30.69,0,0,1,3,7.26,32,32,0,0,1,1.06,8.31Zm-12.31-11.67a18.1,18.1,0,0,0-1.31-7,17.36,17.36,0,0,0-3.5-5.39,15.27,15.27,0,0,0-5-3.44,14.83,14.83,0,0,0-6-1.15h-22a15.11,15.11,0,0,0-5.94,1.12,15.65,15.65,0,0,0-5.12,3.4,16.79,16.79,0,0,0-3.57,5.39,18,18,0,0,0-1.33,7.06V227a18,18,0,0,0,1.31,7,16.59,16.59,0,0,0,3.52,5.36,15.46,15.46,0,0,0,5.1,3.42,15,15,0,0,0,6,1.15h22a16.28,16.28,0,0,0,6.55-1.27,14.66,14.66,0,0,0,5-3.52,15.67,15.67,0,0,0,3.19-5.37,19.62,19.62,0,0,0,1.13-6.81Zm-5.31-9.48a6.41,6.41,0,0,1,.94,2.37,6.5,6.5,0,0,1-2.67,6.61l-33,23.4a4.85,4.85,0,0,1-1.64.9,6.05,6.05,0,0,1-1.74.25,5.89,5.89,0,0,1-2.87-.75,5.74,5.74,0,0,1-2.2-2.15,6.41,6.41,0,0,1-.94-2.37,7,7,0,0,1,0-2.49,6.44,6.44,0,0,1,.87-2.3,6.15,6.15,0,0,1,1.74-1.82l33.06-23.4a5.73,5.73,0,0,1,4.58-1,6,6,0,0,1,2.16.95A6.27,6.27,0,0,1,796.53,205.8Z"/><path d="M886.23,256.89H824.38v-24a21.37,21.37,0,0,1,.4-3.92,21.06,21.06,0,0,1,1.25-4.11,18.67,18.67,0,0,1,2.18-3.89,15.21,15.21,0,0,1,3.24-3.27,15.58,15.58,0,0,1,4.39-2.27,17.32,17.32,0,0,1,5.64-.85H869a4.72,4.72,0,0,0,3.68-1.32,5.59,5.59,0,0,0,1.2-3.87v-5.74a5.79,5.79,0,0,0-1.22-4,4.57,4.57,0,0,0-3.57-1.35H829.88v-13h39.21a17.13,17.13,0,0,1,5.59.85,15.58,15.58,0,0,1,4.39,2.27,15.27,15.27,0,0,1,3.26,3.26,20.34,20.34,0,0,1,3.9,11.83v5.84a19.12,19.12,0,0,1-1.71,8.51,17.36,17.36,0,0,1-4.3,5.64,16.81,16.81,0,0,1-5.56,3.14,18,18,0,0,1-5.57,1H841.48a5.35,5.35,0,0,0-2.4.45,3.46,3.46,0,0,0-1.38,1.2A5.21,5.21,0,0,0,837,231c-.16.63-.28,1.26-.38,1.89v11h49.64Z"/><path d="M958.69,256.89h-12.3V227.65H903a5.68,5.68,0,0,1-2.44-.52,6.15,6.15,0,0,1-1.95-1.4,6.44,6.44,0,0,1-1.3-2.07,7,7,0,0,1-.47-2.54V185.34h12.21v29.24h37.34V185.34h12.3Z"/></svg>