<svg id="Шар_1" data-name="Шар 1" xmlns="http://www.w3.org/2000/svg" viewBox="0 0 1048.27 359.86"><defs><style>.cls-1{font-size:42px;font-family:MyriadPro-Regular, Myriad Pro;letter-spacing:1em;}.cls-2{letter-spacing:1em;}.cls-3{letter-spacing:0.92em;}.cls-4{letter-spacing:0.99em;}</style></defs><path d="M84.33,233.87V84.8h31.18l47.54,60.25L210.4,84.8h31.37V233.87H211.38v-100l-48.33,61.28-48.52-61.08v99.8Z"/><path d="M265.15,233.87V84.8h31.18l47.55,60.25L391.22,84.8H422.6V233.87H392.2v-100l-48.32,61.28-48.52-61.08v99.8Z"/><path d="M446,233.87V84.8h31.18l47.54,60.25L572.05,84.8h31.37V233.87H573v-100L524.7,195.15l-48.52-61.08v99.8Z"/><path d="M665.39,203.93h-44V192.25h44Z"/><path d="M737.66,233.87H675.82v-24a21.13,21.13,0,0,1,1.64-8,18.93,18.93,0,0,1,2.18-3.89,15.44,15.44,0,0,1,3.24-3.27,15.84,15.84,0,0,1,4.39-2.27,17.59,17.59,0,0,1,5.64-.85h27.52a4.75,4.75,0,0,0,3.69-1.32,5.62,5.62,0,0,0,1.19-3.87v-5.73a5.8,5.8,0,0,0-1.22-4,4.59,4.59,0,0,0-3.57-1.34H681.31v-13h39.21a17.4,17.4,0,0,1,5.59.85,15.58,15.58,0,0,1,7.66,5.54,19.78,19.78,0,0,1,2.23,3.87,19.28,19.28,0,0,1,1.26,4.09,20.19,20.19,0,0,1,.4,3.87v5.83a19.12,19.12,0,0,1-1.71,8.51,17.23,17.23,0,0,1-4.3,5.64,16.37,16.37,0,0,1-5.56,3.14,18,18,0,0,1-5.57,1H692.91a5.4,5.4,0,0,0-2.4.45,3.58,3.58,0,0,0-1.38,1.19,5.54,5.54,0,0,0-.73,1.7,18.19,18.19,0,0,0-.37,1.9v11h49.63Z"/><path d="M826.94,203.93a31.54,31.54,0,0,1-1.06,8.31,30.28,30.28,0,0,1-3,7.26,28.72,28.72,0,0,1-4.56,6,29.54,29.54,0,0,1-5.75,4.51,27.17,27.17,0,0,1-6.64,2.87,26.11,26.11,0,0,1-7.19,1h-22a26.26,26.26,0,0,1-7.24-1,27,27,0,0,1-6.64-2.87,29.54,29.54,0,0,1-5.75-4.51,28.3,28.3,0,0,1-4.54-6,31.07,31.07,0,0,1-3-7.26,32,32,0,0,1-1.05-8.31V192.25a30.63,30.63,0,0,1,2.32-12.07,30.12,30.12,0,0,1,6.23-9.46,28.33,28.33,0,0,1,9-6.19,26.36,26.36,0,0,1,10.64-2.22h22a26.5,26.5,0,0,1,7.19,1,27.56,27.56,0,0,1,6.64,2.87,29.21,29.21,0,0,1,5.75,4.52,28.66,28.66,0,0,1,4.56,6,30.28,30.28,0,0,1,3,7.26,31.64,31.64,0,0,1,1.06,8.31Zm-12.31-11.68a17.83,17.83,0,0,0-1.31-7,17,17,0,0,0-3.5-5.39,15.14,15.14,0,0,0-5.05-3.45,14.82,14.82,0,0,0-6-1.14h-22a14.86,14.86,0,0,0-5.94,1.12,15.4,15.4,0,0,0-5.13,3.39,16.72,16.72,0,0,0-3.56,5.39,17.84,17.84,0,0,0-1.34,7.06v11.68a18.16,18.16,0,0,0,1.31,7,16.5,16.5,0,0,0,3.53,5.37,15.42,15.42,0,0,0,5.09,3.42,14.86,14.86,0,0,0,6,1.14h22a16.25,16.25,0,0,0,6.55-1.27,14.47,14.47,0,0,0,5-3.52,15.55,15.55,0,0,0,3.2-5.36,19.94,19.94,0,0,0,1.12-6.81Zm-5.3-9.48a6.58,6.58,0,0,1,.94,2.37,7,7,0,0,1,0,2.5,6.68,6.68,0,0,1-.92,2.29,6.22,6.22,0,0,1-1.76,1.82l-33,23.41a4.65,4.65,0,0,1-1.64.89,6,6,0,0,1-1.74.25,5.92,5.92,0,0,1-2.86-.74,5.84,5.84,0,0,1-2.21-2.15,6.58,6.58,0,0,1-.94-2.37,7,7,0,0,1,0-2.5,6.39,6.39,0,0,1,.87-2.29,5.88,5.88,0,0,1,1.73-1.82L800.87,181a5.73,5.73,0,0,1,2.23-1,5.48,5.48,0,0,1,2.35,0,5.79,5.79,0,0,1,2.16.95A6.13,6.13,0,0,1,809.33,182.77Z"/><path d="M899,233.87H837.18v-24a21.23,21.23,0,0,1,.39-3.92,22.08,22.08,0,0,1,1.25-4.12,18.93,18.93,0,0,1,2.18-3.89,15.68,15.68,0,0,1,3.24-3.27,15.84,15.84,0,0,1,4.39-2.27,17.59,17.59,0,0,1,5.64-.85h27.52a4.75,4.75,0,0,0,3.69-1.32,5.57,5.57,0,0,0,1.19-3.87v-5.73a5.75,5.75,0,0,0-1.22-4,4.59,4.59,0,0,0-3.57-1.34H842.67v-13h39.21a17.4,17.4,0,0,1,5.59.85,15.58,15.58,0,0,1,7.66,5.54,19.77,19.77,0,0,1,3.5,8,21,21,0,0,1,.39,3.87v5.83a19.12,19.12,0,0,1-1.71,8.51,17.23,17.23,0,0,1-4.3,5.64,16.37,16.37,0,0,1-5.56,3.14,18,18,0,0,1-5.57,1H854.27a5.4,5.4,0,0,0-2.4.45,3.58,3.58,0,0,0-1.38,1.19,5.54,5.54,0,0,0-.73,1.7,18.19,18.19,0,0,0-.37,1.9v11H899Z"/><path d="M971.49,233.87H959.18V204.63H915.79a5.69,5.69,0,0,1-2.44-.53,6.36,6.36,0,0,1-2-1.39,6.46,6.46,0,0,1-1.29-2.07,6.8,6.8,0,0,1-.47-2.55V162.31h12.21v29.24h37.33V162.31h12.31Z"/><text class="cls-1" transform="translate(89.58 296.37)">APO<tspan class="cls-2" x="202.99" y="0">C</tspan><tspan x="269.51" y="0">A</tspan><tspan class="cls-3" x="337.22" y="0">L</tspan><tspan class="cls-4" x="395.51" y="0">Y</tspan><tspan x="459.94" y="0">PSE NOW</tspan></text></svg>