<svg id="Слой_1" data-name="Слой 1" xmlns="http://www.w3.org/2000/svg" viewBox="0 0 870.67 225.01"><defs><style>.cls-1{fill:#010101;stroke:#fff;stroke-miterlimit:10;stroke-width:3px;}</style></defs><path class="cls-1" d="M97.05,161.66V53.72h24l36.59,43.63,36.43-43.63h24.13V161.66H194.8V89.25l-37.18,44.38L120.28,89.4v72.26Z"/><path class="cls-1" d="M236.17,161.66V53.72h24l36.58,43.63,36.43-43.63h24.14V161.66H333.92V89.25l-37.18,44.38L259.41,89.4v72.26Z"/><path class="cls-1" d="M375.3,161.66V53.72h24l36.58,43.63L472.3,53.72h24.14V161.66H473.05V89.25l-37.18,44.38L398.54,89.4v72.26Z"/><path class="cls-1" d="M544.12,140H510.23v-8.45h33.89Z"/><path class="cls-1" d="M599.73,161.66H552.14V144.28a13.75,13.75,0,0,1,.31-2.83,14.52,14.52,0,0,1,.95-3,14,14,0,0,1,1.68-2.82,11.54,11.54,0,0,1,2.5-2.37,12.5,12.5,0,0,1,3.38-1.64,14.1,14.1,0,0,1,4.33-.62h21.18a3.79,3.79,0,0,0,2.83-1,3.88,3.88,0,0,0,.92-2.8v-4.16a4,4,0,0,0-.94-2.89,3.62,3.62,0,0,0-2.74-1H556.37v-9.39h30.17a14,14,0,0,1,4.3.61,12.51,12.51,0,0,1,3.38,1.65,11.77,11.77,0,0,1,2.51,2.36,14.15,14.15,0,0,1,2.69,5.77,14.35,14.35,0,0,1,.31,2.8v4.23a13.14,13.14,0,0,1-1.32,6.16,12.56,12.56,0,0,1-3.31,4.08,13,13,0,0,1-4.28,2.28,14.63,14.63,0,0,1-4.28.7H565.29a4.3,4.3,0,0,0-1.84.33,2.64,2.64,0,0,0-1.07.86,3.84,3.84,0,0,0-.56,1.23c-.12.46-.21.92-.29,1.37v8h38.2Z"/><path class="cls-1" d="M668.42,140a21.83,21.83,0,0,1-.82,6,21.55,21.55,0,0,1-2.29,5.26,21.07,21.07,0,0,1-3.51,4.33,22.27,22.27,0,0,1-4.42,3.27,21.71,21.71,0,0,1-10.64,2.8h-17a21.64,21.64,0,0,1-10.68-2.8,22,22,0,0,1-4.42-3.27,20.34,20.34,0,0,1-3.49-4.33,21.53,21.53,0,0,1-2.28-5.26,21.83,21.83,0,0,1-.81-6v-8.45a21.08,21.08,0,0,1,1.79-8.74,21.64,21.64,0,0,1,11.71-11.33,21.38,21.38,0,0,1,8.18-1.61h17a21.39,21.39,0,0,1,5.52.72,22,22,0,0,1,5.12,2.08,22.27,22.27,0,0,1,4.42,3.27,21.1,21.1,0,0,1,5.8,9.59,21.83,21.83,0,0,1,.82,6ZM659,131.53a12.39,12.39,0,0,0-1-5.06,12.2,12.2,0,0,0-2.7-3.9,11.33,11.33,0,0,0-3.88-2.49,12.06,12.06,0,0,0-4.62-.84h-17a12.16,12.16,0,0,0-4.57.82,11.83,11.83,0,0,0-3.94,2.45,12.26,12.26,0,0,0-2.75,3.91,12.44,12.44,0,0,0-1,5.11V140a12.35,12.35,0,0,0,1,5.1,11.88,11.88,0,0,0,6.63,6.36,12.15,12.15,0,0,0,4.64.83h17a13.34,13.34,0,0,0,5-.92,11.42,11.42,0,0,0,3.84-2.55,11.28,11.28,0,0,0,2.46-3.88A13.64,13.64,0,0,0,659,140Zm-4.08-6.87a4.67,4.67,0,0,1,.72,3.53,4.59,4.59,0,0,1-.71,1.66,4.72,4.72,0,0,1-1.35,1.32l-25.37,16.94a3.61,3.61,0,0,1-1.26.65,4.67,4.67,0,0,1-1.34.19,4.75,4.75,0,0,1-2.2-.55,4.37,4.37,0,0,1-1.7-1.55,4.57,4.57,0,0,1-.72-1.72,4.74,4.74,0,0,1,0-1.8,4.55,4.55,0,0,1,.67-1.67,4.49,4.49,0,0,1,1.33-1.31l25.44-16.95a4.65,4.65,0,0,1,3.52-.72,4.7,4.7,0,0,1,3,2Z"/><path class="cls-1" d="M723.88,161.66H676.29V144.28a13.75,13.75,0,0,1,.31-2.83,14,14,0,0,1,1-3,13.13,13.13,0,0,1,1.68-2.82,11.26,11.26,0,0,1,2.49-2.37,12.64,12.64,0,0,1,3.38-1.64,14.1,14.1,0,0,1,4.33-.62h21.18a3.79,3.79,0,0,0,2.83-1,3.88,3.88,0,0,0,.93-2.8v-4.16a4,4,0,0,0-.94-2.89,3.66,3.66,0,0,0-2.75-1H680.52v-9.39h30.17a14,14,0,0,1,4.3.61,12.37,12.37,0,0,1,3.38,1.65,11.77,11.77,0,0,1,2.51,2.36,14.23,14.23,0,0,1,1.72,2.81,14.4,14.4,0,0,1,1.28,5.76v4.23a13.14,13.14,0,0,1-1.32,6.16,12.56,12.56,0,0,1-3.31,4.08,13,13,0,0,1-4.28,2.28,14.63,14.63,0,0,1-4.28.7H689.44a4.3,4.3,0,0,0-1.84.33,2.54,2.54,0,0,0-1.06.86,3.64,3.64,0,0,0-.56,1.23,11.55,11.55,0,0,0-.29,1.37v8h38.19Z"/><path class="cls-1" d="M779.63,161.66h-9.46V140.49H736.78a4.68,4.68,0,0,1-1.88-.38,4.77,4.77,0,0,1-1.5-1,4.56,4.56,0,0,1-1-1.5,4.76,4.76,0,0,1-.37-1.84V109.85h9.4V131h28.73V109.85h9.46Z"/></svg>