<svg width="14" height="14" viewBox="0 0 14 14" fill="currentColor" xmlns="http://www.w3.org/2000/svg">
    <path d="M11.053 4.30343L11.232 4.18587C11.4407 4.03244 11.6415 3.86706 11.8602 3.72957C11.9536 3.67666 12.0591 3.64886 12.1664 3.64886C12.2737 3.64886 12.3792 3.67666 12.4726 3.72957C12.6686 3.82568 12.838 3.96871 12.9657 4.14602C13.1885 4.40573 13.3387 4.7199 13.4011 5.05663C13.4347 5.23613 13.4133 5.42164 13.3395 5.58865C13.306 5.65348 13.26 5.71104 13.2043 5.75802C13.1247 5.82577 13.0333 5.88155 12.9458 5.94531C12.8693 5.98804 12.8045 6.04894 12.7569 6.12266C12.7352 6.15264 12.7074 6.17775 12.6754 6.19638L11.1146 7.28234C11.0926 7.29546 11.0747 7.31461 11.0631 7.33754C11.0514 7.36048 11.0466 7.38625 11.049 7.41186C11.049 8.5277 11.049 9.64155 11.049 10.7554C11.0565 11.1166 10.9376 11.4691 10.713 11.7517C10.5934 11.909 10.4386 12.036 10.2611 12.1225C10.0837 12.209 9.88841 12.2526 9.69107 12.2498H3.92519C3.55479 12.2434 3.19753 12.1112 2.91185 11.8748C2.62616 11.6385 2.42896 11.312 2.3525 10.9487C2.33851 10.8571 2.33252 10.7644 2.3346 10.6717C2.3346 7.9638 2.3346 5.25389 2.3346 2.54597C2.32232 2.28208 2.39436 2.02114 2.54025 1.8011C2.68615 1.58107 2.89828 1.41342 3.1458 1.32253C3.37666 1.21938 3.6267 1.16641 3.87946 1.16711H9.73481C10.0427 1.15879 10.344 1.25733 10.5878 1.44607C10.7341 1.56133 10.8515 1.70929 10.9305 1.87813C11.0096 2.04697 11.0481 2.23201 11.0431 2.41845C11.0431 3.00029 11.0431 3.58212 11.0431 4.16395L11.053 4.30343ZM7.82809 6.92567H4.53359C4.45813 6.91713 4.38889 6.87968 4.34034 6.82117C4.2918 6.76265 4.2677 6.68759 4.27309 6.61169C4.27848 6.53578 4.31295 6.4649 4.36927 6.41386C4.4256 6.36283 4.49944 6.33559 4.57534 6.33785H6.44031C7.00298 6.33785 7.56366 6.33785 8.12633 6.33785C8.15684 6.33656 8.1864 6.32692 8.21182 6.30996C8.25159 6.28007 8.2834 6.23822 8.32515 6.20834C8.91765 5.79388 9.51412 5.38075 10.1146 4.96895C10.1346 4.95651 10.1507 4.93874 10.1613 4.91764C10.1718 4.89653 10.1763 4.8729 10.1742 4.8494C10.1742 4.08159 10.1742 3.31445 10.1742 2.54797C10.1742 2.49218 10.1742 2.43639 10.1742 2.38059C10.1758 2.31369 10.1546 2.24825 10.1141 2.19502C10.0736 2.14179 10.0163 2.10394 9.95153 2.08768C9.86262 2.06443 9.77103 2.05303 9.67914 2.05381C8.90771 2.05381 8.13826 2.05381 7.36881 2.05381H3.95501C3.76869 2.0488 3.58429 2.09277 3.42018 2.18134C3.35869 2.21023 3.30705 2.25663 3.27169 2.31474C3.23634 2.37285 3.21883 2.4401 3.22136 2.50812C3.22136 5.24061 3.22136 7.97309 3.22136 10.7056C3.21836 10.7401 3.21836 10.7747 3.22136 10.8092C3.26484 10.9624 3.35481 11.0982 3.47879 11.1978C3.60277 11.2974 3.75462 11.3559 3.91326 11.3651H9.67914C9.73807 11.3661 9.79647 11.3539 9.85011 11.3294C9.90376 11.3049 9.9513 11.2688 9.98931 11.2237C10.0999 11.0903 10.1572 10.9207 10.1504 10.7474V8.00963C10.1504 7.9897 10.1504 7.96978 10.1504 7.93989C9.99925 8.0455 9.85808 8.13915 9.71493 8.24077C9.66701 8.27343 9.6139 8.29769 9.55786 8.3125C9.16021 8.41213 8.76257 8.51176 8.36492 8.60541L7.1998 8.88836C7.14327 8.90362 7.08349 8.90174 7.02802 8.88298C6.97254 8.86421 6.92386 8.82938 6.88812 8.7829C6.85238 8.73642 6.83118 8.68038 6.8272 8.62183C6.82323 8.56329 6.83665 8.50488 6.86578 8.45398C6.87379 8.43796 6.88044 8.42129 6.88567 8.40416H4.56937C4.53021 8.40338 4.49159 8.39487 4.4557 8.37912C4.41982 8.36338 4.38737 8.3407 4.36023 8.31239C4.33309 8.28408 4.31178 8.25069 4.29752 8.21413C4.28326 8.17757 4.27632 8.13855 4.27711 8.0993C4.27789 8.06005 4.28638 8.02134 4.30209 7.98537C4.31781 7.94941 4.34042 7.9169 4.36867 7.8897C4.39692 7.8625 4.43024 7.84115 4.46672 7.82685C4.5032 7.81256 4.54214 7.8056 4.5813 7.80639C5.3766 7.80639 6.17189 7.80639 6.96718 7.80639C7.06441 7.81113 7.16131 7.82111 7.25747 7.83628L7.82809 6.92567ZM8.86595 6.54708L9.60359 7.60912L12.1207 5.85565L11.385 4.7936L8.86595 6.54708ZM7.77839 8.12321V8.14114L9.03296 7.83428L8.46035 7.01135L7.77839 8.12321ZM11.8881 4.419L12.6158 5.44518C12.6442 5.42167 12.6748 5.40098 12.7072 5.38341C12.8325 5.32563 12.8464 5.22799 12.8166 5.10644C12.7376 4.78255 12.5511 4.49519 12.2877 4.29148C12.2575 4.27003 12.2239 4.25386 12.1883 4.24366C12.1792 4.23965 12.1694 4.23758 12.1595 4.23758C12.1495 4.23758 12.1397 4.23965 12.1306 4.24366C12.0511 4.30144 11.9716 4.35923 11.8881 4.419Z"/>
    <path d="M6.70475 5.4467H4.57536C4.53227 5.44943 4.48911 5.44256 4.44899 5.42659C4.40886 5.41062 4.37277 5.38595 4.3433 5.35435C4.31383 5.32275 4.29172 5.285 4.27856 5.24382C4.2654 5.20264 4.26151 5.15905 4.26718 5.11618C4.27435 5.05139 4.30322 4.99094 4.34906 4.94467C4.39491 4.89839 4.45505 4.86902 4.51969 4.86132C4.54749 4.85937 4.57539 4.85937 4.60319 4.86132H8.80036C8.8722 4.85281 8.94467 4.87073 9.0043 4.91176C9.06392 4.95278 9.10662 5.01412 9.12445 5.08432C9.13586 5.12821 9.13693 5.17415 9.12758 5.21853C9.11823 5.2629 9.0987 5.30449 9.07055 5.34002C9.0424 5.37554 9.0064 5.40403 8.96538 5.42324C8.92435 5.44244 8.87943 5.45184 8.83416 5.45068H6.70475V5.4467Z"/>
    <path d="M6.69077 4.11567C5.98694 4.11567 5.28509 4.11567 4.58126 4.11567C4.53182 4.11957 4.48221 4.11089 4.43702 4.09044C4.39183 4.06999 4.35253 4.03844 4.32277 3.99871C4.29302 3.95898 4.27377 3.91237 4.26682 3.8632C4.25987 3.81403 4.26544 3.76389 4.28302 3.71746C4.30025 3.66157 4.33436 3.61241 4.38065 3.57675C4.42694 3.54109 4.48313 3.52069 4.54149 3.51835H8.77842C8.82513 3.51629 8.87192 3.5203 8.9176 3.53029C8.98452 3.54718 9.04311 3.5877 9.08256 3.64441C9.12202 3.70112 9.13969 3.77019 9.13233 3.83892C9.1268 3.9087 9.09648 3.97419 9.04687 4.0235C8.99726 4.07282 8.93165 4.10269 8.86193 4.10771C8.83211 4.10771 8.80228 4.10771 8.77047 4.10771L6.69077 4.11567Z"/>
</svg>
