<svg width="16" height="21" viewBox="0 0 16 21" fill="none" xmlns="http://www.w3.org/2000/svg">
    <path fill-rule="evenodd" clip-rule="evenodd" d="M8 2C6.43648 2 4.91857 2.6736 3.7858 3.90346C2.65049 5.13609 2 6.82424 2 8.6C2 9.24052 2.22064 10.0562 2.64718 11.0031C3.06774 11.9367 3.65587 12.9272 4.31385 13.8975C5.60887 15.8071 7.12097 17.5602 8 18.5315C8.87903 17.5602 10.3911 15.8071 11.6862 13.8975C12.3441 12.9272 12.9323 11.9367 13.3528 11.0031C13.7794 10.0562 14 9.24052 14 8.6C14 6.82424 13.3495 5.13609 12.2142 3.90346C11.0814 2.6736 9.56352 2 8 2ZM8 6C6.34315 6 5 7.34315 5 9C5 10.6569 6.34315 12 8 12C9.65685 12 11 10.6569 11 9C11 7.34315 9.65685 6 8 6Z" fill="#096872"/>
    <path fill-rule="evenodd" clip-rule="evenodd" d="M8 2C6.43648 2 4.91857 2.6736 3.7858 3.90346C2.65049 5.13609 2 6.82424 2 8.6C2 9.24052 2.22064 10.0562 2.64718 11.0031C3.06774 11.9367 3.65587 12.9272 4.31385 13.8975C5.60887 15.8071 7.12097 17.5602 8 18.5315C8.87903 17.5602 10.3911 15.8071 11.6862 13.8975C12.3441 12.9272 12.9323 11.9367 13.3528 11.0031C13.7794 10.0562 14 9.24052 14 8.6C14 6.82424 13.3495 5.13609 12.2142 3.90346C11.0814 2.6736 9.56352 2 8 2ZM2.31471 2.54851C3.80745 0.927823 5.85049 0 8 0C10.1495 0 12.1926 0.927823 13.6853 2.54851C15.1755 4.16644 16 6.34446 16 8.6C16 9.64756 15.6545 10.7631 15.1764 11.8245C14.6923 12.8991 14.0373 13.9939 13.3414 15.02C11.9495 17.0725 10.3388 18.9304 9.43916 19.9217C8.66364 20.7763 7.33636 20.7763 6.56084 19.9217C5.66121 18.9305 4.05047 17.0725 2.65858 15.02C1.96271 13.9939 1.30774 12.8991 0.82365 11.8245C0.345539 10.7631 0 9.64756 0 8.6C0 6.34446 0.82451 4.16644 2.31471 2.54851Z" fill="#096872"/>
</svg>
