<svg width="20" height="21" viewBox="0 0 20 21" fill="none" xmlns="http://www.w3.org/2000/svg">
    <path fill-rule="evenodd" clip-rule="evenodd" d="M8.23119 1.65041C8.80373 -0.186689 11.1963 -0.186698 11.7688 1.65041L13.29 6.53155H18.1291C19.9565 6.53155 20.6962 9.08759 19.1974 10.2229L15.3489 13.138L16.8342 17.9039C17.412 19.7578 15.4754 21.3371 13.9972 20.2174L10 17.1897L6.00285 20.2174C4.52465 21.3371 2.58798 19.7578 3.16576 17.9039L4.65106 13.138L0.802615 10.2229C-0.696206 9.08758 0.0435253 6.53155 1.8709 6.53155H6.70997L8.23119 1.65041ZM11.5212 7.18171L10 2.30057L8.47878 7.18171C8.22211 8.00529 7.51059 8.55954 6.70997 8.55954H1.8709L5.71934 11.4746C6.40069 11.9907 6.68619 12.9336 6.41987 13.7881L4.93457 18.554L8.93172 15.5263C9.57356 15.0401 10.4264 15.0401 11.0683 15.5263L15.0654 18.554L13.5801 13.7881C13.3138 12.9336 13.5993 11.9907 14.2807 11.4746L18.1291 8.55954H13.29C12.4894 8.55954 11.7779 8.00529 11.5212 7.18171Z" fill="#FFD600"/>
    <path d="M10 2.30057L11.5212 7.18171C11.7779 8.00529 12.4894 8.55954 13.29 8.55954H18.1291L14.2807 11.4746C13.5993 11.9907 13.3138 12.9336 13.5801 13.7881L15.0654 18.554L11.0683 15.5263C10.4264 15.0401 9.57356 15.0401 8.93172 15.5263L4.93457 18.554L6.41987 13.7881C6.68619 12.9336 6.40069 11.9907 5.71934 11.4746L1.8709 8.55954H6.70997C7.51059 8.55954 8.22211 8.00529 8.47878 7.18171L10 2.30057Z" fill="#FFD600"/>
</svg>
