<svg xmlns="http://www.w3.org/2000/svg" viewBox="0 0 64 64"><defs><style>.cls-1{fill:#fff;}.cls-2{fill:#c8c8c8;}.cls-3{fill:#00d6a0;}.cls-4{fill:#ccc;}</style></defs><g id="Object"><path d="M18.66,56.8H44.84a3,3,0,0,0,3-3V9.1a3,3,0,0,0-3-3H18.66a3,3,0,0,0-3,3V53.76A3,3,0,0,0,18.66,56.8Zm13.09-2.95A1.87,1.87,0,1,1,33.61,52,1.86,1.86,0,0,1,31.75,53.85ZM20.39,10.25H43.11V48H20.39Z"/><path class="cls-1" d="M43.11,10.25H20.39V48H43.11ZM22.53,12.62H41V26.19H22.53ZM41,27.38v1.69h-4.4V27.38Zm-18.42,0h4.4v1.69h-4.4ZM31,38.5H22.53v-8H31Zm.58-9.43H27.2V27.38h4.4Zm.28-1.69h4.4v1.69h-4.4Zm.29,9.27h4.58V37.8H32.17Zm8.8,6h-8.8V41.47H41Zm0-2h-8.8V39.49H41Zm0-4.82h-8.8V34.68H41Zm0-2h-8.8V32.7H41Zm0-2h-8.8V30.73H41Z"/><path class="cls-2" d="M31.75,50.12A1.87,1.87,0,1,0,33.61,52,1.87,1.87,0,0,0,31.75,50.12Z"/><rect class="cls-3" x="22.53" y="12.62" width="18.42" height="13.57"/><rect class="cls-4" x="22.53" y="27.38" width="4.4" height="1.69"/><rect class="cls-4" x="22.53" y="30.52" width="8.49" height="7.99"/><rect class="cls-4" x="27.2" y="27.38" width="4.4" height="1.69"/><rect class="cls-4" x="31.88" y="27.38" width="4.4" height="1.69"/><rect class="cls-3" x="32.17" y="30.73" width="8.8" height="1.15"/><rect class="cls-3" x="32.17" y="32.7" width="8.8" height="1.15"/><rect class="cls-3" x="32.17" y="34.68" width="8.8" height="1.15"/><rect class="cls-3" x="32.17" y="36.65" width="4.58" height="1.15"/><rect class="cls-3" x="32.17" y="39.49" width="8.8" height="1.15"/><rect class="cls-3" x="32.17" y="41.47" width="8.8" height="1.15"/><rect class="cls-4" x="36.55" y="27.38" width="4.4" height="1.69"/></g></svg>