<svg xmlns="http://www.w3.org/2000/svg" viewBox="0 0 64 64"><defs><style>.cls-1{fill:#00d6a0;}</style></defs><g id="Object"><path d="M28.9,11a.44.44,0,0,0-.51-.44A21.52,21.52,0,0,0,10.61,28.1a.44.44,0,0,0,.44.51h3a.44.44,0,0,0,.43-.35,17.82,17.82,0,0,1,14.09-13.9.42.42,0,0,0,.36-.43Z"/><path d="M52.94,34.13H50a.42.42,0,0,0-.43.36A17.78,17.78,0,0,1,35.17,48.84a.43.43,0,0,0-.36.43v2.94a.45.45,0,0,0,.51.45,21.52,21.52,0,0,0,18.07-18A.45.45,0,0,0,52.94,34.13Z"/><path d="M35.35,45.88A14.75,14.75,0,0,0,46.51,34.66a.45.45,0,0,0-.44-.53h-3a.45.45,0,0,0-.43.32,11.13,11.13,0,0,1-7.54,7.62.44.44,0,0,0-.32.42v3A.44.44,0,0,0,35.35,45.88Z"/><path d="M56.42,31.54a1.83,1.83,0,0,0-.55-1.3,1.85,1.85,0,0,0-1.32-.54l-14.86,0a7.91,7.91,0,0,0-5.91-5.81V8.81a1.86,1.86,0,0,0-3.72,0V23.93a7.94,7.94,0,0,0-5.9,5.82l-14.73,0a1.85,1.85,0,0,0-1.85,1.84,1.78,1.78,0,0,0,.55,1.3,1.83,1.83,0,0,0,1.31.54l14.72,0a7.9,7.9,0,0,0,5.9,5.8V53.73a1.86,1.86,0,0,0,1.86,1.84h0A1.83,1.83,0,0,0,33.23,55a1.79,1.79,0,0,0,.55-1.3V39.24a7.92,7.92,0,0,0,5.91-5.82l14.86,0A1.86,1.86,0,0,0,56.42,31.54ZM32,37.41a5.72,5.72,0,1,1,5.72-5.72A5.72,5.72,0,0,1,32,37.41Z"/><path d="M49.9,28.69h3a.44.44,0,0,0,.44-.51,21.44,21.44,0,0,0-18-17.68.45.45,0,0,0-.51.45v2.94a.44.44,0,0,0,.36.43,17.71,17.71,0,0,1,14.3,14A.44.44,0,0,0,49.9,28.69Z"/><path d="M35.13,21.09a11.1,11.1,0,0,1,7.45,7.29.44.44,0,0,0,.42.31h3a.44.44,0,0,0,.43-.54A14.73,14.73,0,0,0,35.35,17.27a.45.45,0,0,0-.54.44v3A.44.44,0,0,0,35.13,21.09Z"/><path d="M28.82,42.1a11.08,11.08,0,0,1-7.54-7.35.45.45,0,0,0-.42-.31h-3a.45.45,0,0,0-.44.54A14.75,14.75,0,0,0,28.6,45.91a.45.45,0,0,0,.54-.44V42.52A.45.45,0,0,0,28.82,42.1Z"/><path d="M14,34.44H11a.44.44,0,0,0-.44.51,21.45,21.45,0,0,0,18,17.72.44.44,0,0,0,.51-.44V49.28a.45.45,0,0,0-.37-.43A17.72,17.72,0,0,1,14.43,34.8.44.44,0,0,0,14,34.44Z"/><path d="M28.36,17.32a14.79,14.79,0,0,0-10.9,10.75.44.44,0,0,0,.44.54h3a.43.43,0,0,0,.41-.31,11.18,11.18,0,0,1,7.27-7.15.44.44,0,0,0,.31-.42v-3A.44.44,0,0,0,28.36,17.32Z"/><path class="cls-1" d="M32,26a5.72,5.72,0,1,0,5.72,5.72A5.72,5.72,0,0,0,32,26Z"/></g></svg>