<svg xmlns="http://www.w3.org/2000/svg" viewBox="0 0 64 64"><defs><style>.cls-1{fill:#ccc;}.cls-2{fill:#00d6a0;}.cls-3{fill:#fff;}.cls-4{fill:#c8c8c8;}</style></defs><g id="Object"><path class="cls-1" d="M50.51,50.54V14a1.85,1.85,0,0,0-1.86-1.85h-5A1.85,1.85,0,0,1,45.49,14v2.5H48a.29.29,0,0,1,.23.1.33.33,0,0,1,.1.23v7.09a.37.37,0,0,1-.1.23.32.32,0,0,1-.23.09H45.49v3.34H48a.34.34,0,0,1,.33.33V35a.34.34,0,0,1-.33.33H45.49v3.34H48a.32.32,0,0,1,.23.09.37.37,0,0,1,.1.23v7.1a.32.32,0,0,1-.1.22.29.29,0,0,1-.23.1H45.49v4.16a1.86,1.86,0,0,1-1.86,1.86h5A1.86,1.86,0,0,0,50.51,50.54Z"/><path class="cls-2" d="M45.49,24.21H48a.32.32,0,0,0,.23-.09.37.37,0,0,0,.1-.23V16.8a.33.33,0,0,0-.1-.23.29.29,0,0,0-.23-.1H45.49Z"/><path class="cls-2" d="M45.49,35.3H48a.34.34,0,0,0,.33-.33V27.88a.34.34,0,0,0-.33-.33H45.49Z"/><path class="cls-2" d="M45.49,46.38H48a.29.29,0,0,0,.23-.1.32.32,0,0,0,.1-.22V39a.37.37,0,0,0-.1-.23.32.32,0,0,0-.23-.09H45.49Z"/><path d="M45.49,50.54V14a1.85,1.85,0,0,0-1.86-1.85H19.57V52.4H43.63A1.86,1.86,0,0,0,45.49,50.54ZM42.58,29H22.48v-1.1h20.1Zm0-3.46H22.48V22h20.1Z"/><path class="cls-2" d="M19.57,12.12H15.35A1.85,1.85,0,0,0,13.49,14V50.54a1.86,1.86,0,0,0,1.86,1.86h4.22Z"/><rect class="cls-3" x="22.48" y="21.96" width="20.1" height="3.57"/><rect class="cls-4" x="22.48" y="27.88" width="20.1" height="1.1"/></g></svg>