<svg xmlns="http://www.w3.org/2000/svg" viewBox="0 0 64 64"><defs><style>.cls-1{fill:#00d6a0;}</style></defs><g id="Object"><polygon class="cls-1" points="4.52 45.59 18.18 45.49 18.13 36.64 4.46 36.74 4.52 45.59"/><polygon class="cls-1" points="25.2 45.44 38.86 45.33 38.8 36.48 25.14 36.59 25.2 45.44"/><rect class="cls-1" x="45.85" y="36.37" width="13.67" height="8.85" transform="translate(-0.27 0.35) rotate(-0.38)"/><path d="M61,35.47a.8.8,0,0,0-.77-.83l-7.44.06,0-4.16a1.07,1.07,0,0,0-1-1.1L33,29.58l0-4,6.58-.05a1.17,1.17,0,0,0,.84-.38,1.38,1.38,0,0,0,.34-.92l-.07-10.52a1.24,1.24,0,0,0-1.2-1.28l-15.21.12A1.25,1.25,0,0,0,23,13.82l.07,10.52a1.32,1.32,0,0,0,.36.91,1.15,1.15,0,0,0,.84.37l6.58-.05,0,4-19.65.15a1,1,0,0,0-.72.33,1.19,1.19,0,0,0-.3.79l0,4.16-6.58,0a.8.8,0,0,0-.76.84L3,46.44a.84.84,0,0,0,.23.59.71.71,0,0,0,.54.24L19,47.15a.71.71,0,0,0,.54-.24.81.81,0,0,0,.22-.6l-.06-10.52a.82.82,0,0,0-.78-.83l-6.58,0,0-3,18.62-.14,0,3-6.58.05a.8.8,0,0,0-.76.84l.07,10.52a.84.84,0,0,0,.23.59.71.71,0,0,0,.54.24L39.65,47a.76.76,0,0,0,.54-.25.81.81,0,0,0,.22-.6l-.07-10.52a.8.8,0,0,0-.77-.83L33,34.85l0-3,17.75-.13,0,3-5.71,0a.8.8,0,0,0-.76.84l.06,10.52a.9.9,0,0,0,.24.59.68.68,0,0,0,.54.24l15.22-.11a.72.72,0,0,0,.54-.25.81.81,0,0,0,.22-.6Zm-42.84,10-13.66.1-.06-8.85,13.66-.1Zm20.68-.16-13.66.1-.06-8.85,13.66-.1Zm7,0-.06-8.85,13.66-.11.06,8.85Z"/></g></svg>