<svg xmlns="http://www.w3.org/2000/svg" viewBox="0 0 64 64"><defs><style>.cls-1{fill:#00d6a0;}</style></defs><g id="Object"><path d="M34.37,26.93,47.76,13.14A20.49,20.49,0,0,0,34.49,8Z"/><path d="M53.27,43.72,31.41,32.15V7.86h-.49C17.5,7.85,7.59,18.73,7.59,32.15a24.3,24.3,0,0,0,24.3,24.3C41.3,56.45,50.05,50.89,53.27,43.72Z"/><polygon class="cls-1" points="46.95 18.25 43.45 21.85 39.93 33.06 41.96 34.15 46.95 18.25"/><polygon class="cls-1" points="42.41 22.91 38.91 26.51 37.3 31.65 39.33 32.74 42.41 22.91"/><path class="cls-1" d="M47.83,37.29l2,1.09,4.92-15.69a23.47,23.47,0,0,0-1.45-2.93Z"/><path class="cls-1" d="M56.2,27.94a21.18,21.18,0,0,0-1-4.24l-4.7,15,2,1.08Z"/><path class="cls-1" d="M56.38,29.63,53.09,40.11l1.19.63a21.79,21.79,0,0,0,2.13-10Q56.41,30.2,56.38,29.63Z"/><path class="cls-1" d="M48,17.19,42.56,34.47l2,1.09,6.1-19.43c-.27-.3-.54-.6-.82-.88Z"/><polygon class="cls-1" points="36.7 31.33 37.88 27.57 35.07 30.46 36.7 31.33"/><path class="cls-1" d="M45.19,35.88l2,1.09,5.64-18a23.66,23.66,0,0,0-1.65-2.28Z"/></g></svg>