<svg width="14" height="14" viewBox="0 0 14 14" fill="currentColor" xmlns="http://www.w3.org/2000/svg">
    <path fill-rule="evenodd" clip-rule="evenodd" d="M6.41745 1.16663H5.83412H2.33268C1.68835 1.16663 1.16602 1.68896 1.16602 2.33329V5.83329V6.41663H1.74935H5.83412H6.41745V5.83329V1.74996V1.16663ZM5.25079 2.33329V5.24996H2.33268L2.33268 2.33329H5.25079ZM6.41745 7.58329H5.83412H1.74935H1.16602V8.16663V11.6666C1.16602 12.311 1.68835 12.8333 2.33268 12.8333H5.83412H6.41745V12.25V8.16663V7.58329ZM5.25079 8.74996V11.6666H2.33268V8.74996H5.25079ZM7.5834 1.16663H8.16673H11.6686C12.3129 1.16663 12.8353 1.68896 12.8353 2.33329V5.83329V6.41663H12.2519H8.16673H7.5834V5.83329V1.74996V1.16663ZM8.75007 2.33329V5.24996H11.6686V2.33329H8.75007ZM7.5834 7.58329H8.16673H12.2519H12.8353V8.16663V11.6666C12.8353 12.311 12.3129 12.8333 11.6686 12.8333H8.16673H7.5834V12.25V8.16663V7.58329ZM8.75007 8.74996V11.6666H11.6686V8.74996H8.75007Z"/>
</svg>
