<svg width="14" height="12" viewBox="0 0 14 12" fill="none" xmlns="http://www.w3.org/2000/svg">
    <path fill-rule="evenodd" clip-rule="evenodd" d="M1.55556 10.274V4.10963H12.1852C12.3284 4.10963 12.4444 4.22003 12.4444 4.35621V10.274C12.4444 10.4102 12.3284 10.5206 12.1852 10.5206H1.81481C1.67163 10.5206 1.55556 10.4102 1.55556 10.274ZM9.76543 6.65758C9.38361 6.65758 9.07407 6.95197 9.07407 7.31511C9.07407 7.67826 9.38361 7.97265 9.76543 7.97265H10.4568C10.8386 7.97265 11.1481 7.67826 11.1481 7.31511C11.1481 6.95197 10.8386 6.65758 10.4568 6.65758H9.76543Z" fill="#ECB464"/>
    <path fill-rule="evenodd" clip-rule="evenodd" d="M9.76543 4.57764e-05H10.5432V0.739772V2.63018H12.1852C13.1875 2.63018 14 3.40295 14 4.35621V10.274C14 11.2273 13.1875 12 12.1852 12H1.81481C0.81252 12 0 11.2273 0 10.274V4.02744V3.36991V2.63018V1.72607C0 0.772814 0.81252 4.57764e-05 1.81481 4.57764e-05H9.76543ZM1.55556 2.63018H8.98765V1.4795H1.81481C1.67163 1.4795 1.55556 1.58989 1.55556 1.72607V2.63018ZM1.55556 10.274V4.10963H12.1852C12.3284 4.10963 12.4444 4.22003 12.4444 4.35621V10.274C12.4444 10.4102 12.3284 10.5206 12.1852 10.5206H1.81481C1.67163 10.5206 1.55556 10.4102 1.55556 10.274Z" fill="#ECB464"/>
</svg>
